<svg width="66" height="55" viewBox="0 0 66 55" fill="none" xmlns="http://www.w3.org/2000/svg">
<path d="M56.1679 0.615134C57.0236 0.605728 57.77 0.657967 57.4482 0.681482C59.191 0.618158 59.2285 0.690217 59.4542 0.567599C60.5731 0.507467 61.7663 0.590779 60.4936 0.640498L63.7191 0.565584L61.7905 0.546603C62.0531 0.495709 62.8235 0.503268 63.6047 0.508811L64.1982 0.512337C64.4916 0.519889 64.775 0.620404 65.0076 0.799396C65.2022 0.949362 65.3553 1.14651 65.4524 1.37217C65.5382 1.56886 65.5654 1.74808 65.5809 1.87524L65.5792 1.80956C65.5627 1.46148 65.4183 1.13175 65.1736 0.883629C64.9289 0.63551 64.6013 0.486481 64.2534 0.465139L64.198 0.462787L64.1438 0.462283L64.0635 0.462451L63.7378 0.463291L61.9921 0.468329L62.1666 0.434568C61.3716 0.471017 59.8275 0.455732 59.2891 0.441455C59.374 0.424658 59.3199 0.397446 59.9356 0.394423C55.7201 0.386696 58.8002 0.572638 55.3022 0.606399C55.5908 0.603524 55.8794 0.606437 56.1679 0.615134ZM52.587 0.3657L51.1166 0.493524L48.6497 0.460603C48.6216 0.504778 46.8245 0.540388 48.0413 0.579189C48.2793 0.572134 48.7494 0.559032 49.1292 0.563064C48.8539 0.658302 45.8486 0.610598 46.5736 0.707012C48.5245 0.681817 48.824 0.702813 50.025 0.625379C51.8135 0.634282 53.1161 0.656119 53.9513 0.691056C54.4822 0.676611 54.5568 0.617989 55.2313 0.606399L54.7733 0.610095L54.7004 0.466818C54.1377 0.497053 53.6059 0.482775 52.9817 0.485631L55.8695 0.318166C54.9382 0.183958 52.1007 0.262735 50.9671 0.20697C52.3734 0.327907 49.8476 0.267102 52.587 0.3657ZM53.9376 42.9936C53.5053 43.4297 53.4013 43.5815 53.3508 43.6563L58.237 38.766C58.0572 38.8925 56.6164 40.2675 57.5412 39.3108C57.0923 39.7008 55.8394 41.0041 55.6901 41.2254L56.0038 40.8304C54.9297 42.0087 54.0582 42.6757 54.7617 41.9108L54.6671 42.0063L51.748 45.3259C52.905 44.1924 52.5611 44.375 53.9376 42.9936ZM55.3813 2.45322C54.4856 2.46632 54.3755 2.47992 54.4773 2.49386C54.7789 2.48514 55.0802 2.47159 55.3813 2.45322ZM51.0659 46.1021L50.1513 47.1418C50.5259 46.7338 50.847 46.3675 51.0659 46.1021ZM56.8825 38.3802C56.8811 38.375 56.8889 38.3614 56.8585 38.3827L56.4518 38.8536L56.4631 38.8425C56.6167 38.6728 56.755 38.5206 56.8825 38.3802ZM43.6874 25.8775C43.6067 25.7698 43.5357 25.6781 43.433 25.5546C43.5196 25.6609 43.6043 25.7685 43.6874 25.8775ZM54.6387 45.9052L56.7518 43.6716C56.4906 43.9899 57.5305 42.9328 57.1059 43.4238C57.267 43.2537 58.0322 42.4659 57.8058 42.6631L57.3644 43.1082C58.4273 41.8792 57.7013 42.5413 59.5381 40.5779C58.3092 41.7082 57.837 42.2707 57.25 42.9332L56.6928 43.5133L55.0019 45.4366L54.6387 45.9052ZM12.5535 3.12039L12.5199 3.12946C12.5506 3.12627 12.5562 3.12324 12.5535 3.12039ZM12.3855 3.16708L12.5199 3.12946C12.3546 3.14827 11.7222 3.16624 12.3855 3.16708ZM51.3709 45.6894C51.3568 45.7346 51.2501 45.8787 51.0659 46.1021L51.748 45.3261L51.3709 45.6894Z" fill="#202020"/>
<path d="M52.8482 43.8493L54.6671 42.0065L55.299 41.2884L52.8482 43.8493ZM45.1082 29.2528C45.016 28.8168 44.8923 28.3881 44.7382 27.97L44.5433 27.4599C44.4916 27.3188 44.6093 27.5175 44.7441 27.801C44.8803 28.0839 45.0205 28.4556 45.0864 28.6229C45.1475 28.7914 45.1668 28.745 45.0027 28.2047C44.7765 27.5603 44.548 27.1557 44.3448 26.8172C44.1343 26.482 43.9435 26.2114 43.6874 25.8773C43.9069 26.1682 44.1048 26.4748 44.2793 26.7947C44.4011 27.0212 44.4654 27.1685 44.4993 27.2585C44.5652 27.4399 44.5128 27.3929 44.4605 27.3484C44.4083 27.3034 44.3564 27.261 44.4202 27.4441C44.4513 27.536 44.5102 27.6846 44.5991 27.9228C44.6863 28.1617 44.805 28.4902 44.9238 28.9506C44.8039 28.7019 44.5912 28.0537 44.2435 27.3653C43.9037 26.6733 43.4161 25.9567 43.0056 25.4663C42.7877 25.176 42.7254 25.092 42.7766 25.1211C42.8257 25.152 42.9831 25.3002 43.1656 25.5022C43.3492 25.7033 43.5569 25.9588 43.727 26.184C43.898 26.4086 44.0332 26.6017 44.1001 26.6599C43.6956 26.0009 43.474 25.7671 43.3375 25.6129C43.1955 25.4624 43.1185 25.4018 42.8759 25.1841C42.0705 24.2893 41.0027 23.6001 39.9732 23.1824C38.9412 22.7553 37.961 22.5868 37.2535 22.4563C37.0633 22.4451 36.8728 22.4411 36.6824 22.4442L36.2049 22.4566C35.9242 22.4662 35.7218 22.4773 35.5452 22.4895C35.1922 22.5139 34.9431 22.5426 34.3804 22.5728C34.2683 22.6342 34.996 22.6501 35.842 22.663L36.4877 22.6728L36.7802 22.6805C36.8703 22.6834 36.958 22.6911 37.0427 22.696C37.3805 22.7242 37.6627 22.7732 37.8125 22.8208C37.687 22.7904 37.4386 22.7435 37.513 22.7341C37.513 22.7341 37.8755 22.7781 38.2309 22.8567C38.4678 22.9079 38.7023 22.9696 38.9337 23.0416C38.6053 22.9362 38.4499 22.8928 38.4185 22.8712C38.3869 22.8508 38.4788 22.8539 38.6349 22.8797C38.9486 22.9236 39.5133 23.0852 39.8597 23.2296C40.168 23.3568 40.4677 23.5038 40.757 23.6699C41.0346 23.8304 41.2243 23.9677 41.153 23.9403C41.153 23.9403 40.9762 23.8345 40.7953 23.737C40.6139 23.6401 40.4286 23.5519 40.4286 23.5519C40.889 23.8094 41.3927 24.1035 41.8662 24.461C42.3394 24.8166 42.7812 25.2352 43.1097 25.6907C43.1279 25.7508 42.8433 25.4387 42.7869 25.4041C43.2347 25.8393 43.6217 26.3264 43.9732 26.9231C44.323 27.5199 44.6461 28.2262 44.8831 29.132C44.8831 29.132 44.7934 28.874 44.6878 28.6246C44.5835 28.3745 44.4622 28.1345 44.4624 28.1345C44.6198 28.4691 44.7886 28.9303 44.9028 29.4809C44.9637 29.7721 45.0069 30.0667 45.0323 30.3631C45.0603 30.6799 45.062 30.9782 45.0605 31.3766C45.0588 32.8892 45.0316 34.5228 44.9962 35.8604C45.0168 35.5636 45.0311 35.0291 45.0546 35.3501C45.0837 36.9212 45.0004 38.1081 44.9364 37.3803C45.0372 38.9152 44.8516 43.2286 44.9824 45.3205L45.0592 46.5146L45.0687 46.6639L45.0736 46.7385L45.0783 46.8487L45.0975 47.3988L45.1358 48.4741C45.1868 49.7974 45.2379 51.1205 45.1868 52.6905L48.183 49.4022L48.8519 48.6602L49.1732 48.3025L49.3689 48.0702L50.1516 47.1415C49.8942 47.4226 49.6326 47.6998 49.3671 47.9733L49.1262 48.1649L49.0723 48.2086L49.0005 48.2709L48.8721 48.3819C48.7148 48.5173 48.6149 48.6009 48.5914 48.6085C48.5679 48.6161 48.6213 48.5469 48.7696 48.3781L49.3617 47.704L49.0407 48.0566L48.7462 48.3848L48.2712 48.9258C47.9509 49.2871 47.5147 49.7552 46.3369 50.9362C47.2419 49.96 47.4406 49.6051 45.7991 51.2127L45.8028 50.7258L45.7542 48.1624L45.7243 46.9018L45.6914 45.9707C45.6455 44.7944 45.593 43.6808 45.5385 42.5784C45.43 40.3735 45.3156 38.2133 45.238 35.6862C45.2792 35.5928 45.294 34.5541 45.3009 33.2975L45.3076 31.3405C45.3094 31.0042 45.3096 30.7351 45.2936 30.4687C45.2805 30.2263 45.2574 29.9846 45.2244 29.7441C45.271 29.9049 45.3123 30.1076 45.3466 30.3426C45.3618 30.4602 45.3768 30.5858 45.3867 30.7185C45.3976 30.8615 45.4048 31.0048 45.4084 31.1482C45.4279 31.7836 45.4386 32.5129 45.4475 33.2557L45.4541 31.4886L45.4551 30.9867C45.455 30.5412 45.422 30.0963 45.3563 29.6556L45.2345 29.4515L45.1082 29.2528Z" fill="#202020"/>
<path d="M45.5624 41.6091C45.5694 41.4695 45.5745 41.3298 45.5777 41.1901C45.571 41.2667 45.5656 41.3917 45.5624 41.6091ZM45.445 33.708C45.4482 33.7266 45.4505 33.7201 45.4539 33.7266L45.4475 33.2555L45.445 33.708ZM50.3433 46.4548L50.9275 45.7945L50.4585 46.294C50.3052 46.4629 50.2365 46.5473 50.3433 46.4548ZM51.2107 45.7917L51.1131 45.9368L51.3709 45.6892C51.3845 45.6501 51.3454 45.6677 51.2107 45.7917ZM29.3072 21.5909L28.7931 21.6087C29.1028 21.6072 29.2363 21.6 29.3072 21.5909Z" fill="#202020"/>
<path d="M42.6028 24.5492C42.9159 24.8384 43.0714 25.003 43.1734 25.0954C43.2732 25.19 43.3168 25.2155 43.3729 25.2599C43.4299 25.3035 43.5016 25.3643 43.6509 25.5367C43.7976 25.7105 44.0285 25.9939 44.3389 26.5206C44.3389 26.5206 44.2504 26.3646 44.1555 26.2124C44.0604 26.0602 43.9591 25.9119 43.9591 25.9119C44.4871 26.6117 45.0637 27.706 45.3487 28.9318C45.4939 29.5414 45.5738 30.1647 45.5871 30.7912L45.5894 32.6254C45.5406 32.3716 45.53 33.9895 45.4542 33.7265C45.472 35.2641 45.489 36.787 45.5671 37.5792C45.5416 38.5319 45.6104 39.979 45.578 41.19C45.6239 40.6787 45.7332 42.9144 45.6771 39.9669C45.6833 40.2049 45.6939 40.0554 45.7003 40.2907C45.7643 38.3918 45.6558 37.6306 45.6543 35.9949C45.6995 35.0172 45.7273 37.5941 45.7455 36.6713C45.7245 35.6501 45.7381 34.0478 45.7356 32.7178C45.7344 32.0528 45.7292 31.4557 45.7136 31.0336C45.6983 30.6315 45.6499 30.4037 45.6109 30.4375C45.558 29.7445 45.4791 29.3563 45.4354 29.0863C45.3886 28.8166 45.3652 28.6654 45.3222 28.461C45.1253 27.9438 44.8322 27.2128 44.3878 26.4681C43.9486 25.7216 43.3546 24.9699 42.7078 24.3706C42.0639 23.7676 41.378 23.3178 40.8519 23.0521C40.3253 22.784 39.968 22.6841 39.9529 22.7371C40.3224 22.8807 40.796 23.1041 41.2834 23.3976C41.7715 23.6898 42.2707 24.0542 42.7162 24.4358L42.6028 24.5492ZM59.1501 38.1751L59.5943 37.5162L60.6779 36.4184L60.925 36.1691L60.9855 36.1081L61.0155 36.0777L61.0305 36.0626L61.0379 36.055L61.0416 36.0515L61.0434 36.0495L61.2561 36.2628C61.2613 36.2683 61.2671 36.2732 61.2734 36.2774C61.2804 36.2793 61.2537 36.2739 61.2673 36.2752C61.2713 36.2747 61.2777 36.2715 61.2744 36.2732C61.276 36.2773 61.2601 36.2679 61.2762 36.2972L61.2448 36.2752L61.243 36.2739C61.2492 36.2808 61.2263 36.2564 61.2562 36.289L61.2567 36.2885L61.2581 36.2872L61.2608 36.2843L61.268 36.2759C61.2782 36.2579 61.2663 36.2843 61.2697 36.2803C61.2694 36.2771 61.2687 36.274 61.2676 36.271C61.2692 36.2658 61.2599 36.2732 61.2799 36.2746C61.2826 36.2752 61.297 36.2625 61.2893 36.2729L61.2692 36.3016L61.268 36.3035C61.2179 36.2611 61.6998 36.679 61.4951 36.503L61.4921 36.506L61.486 36.5121L61.4737 36.5242L61.4494 36.5484L61.3525 36.6446L61.16 36.8358L57.789 40.1908C57.5644 40.3859 57.8883 40.0435 58.0526 39.8698C56.1345 41.8127 53.2236 44.6787 51.8676 46.1333C51.2525 46.7468 49.6061 48.3253 50.1847 47.6835L49.7218 48.1713L49.4729 48.4268L49.084 48.8149C49.0353 48.8443 49.0966 48.7721 49.2142 48.6478L49.5448 48.3063C49.749 48.0984 49.968 47.8772 49.9622 47.8515C49.687 48.1214 49.5733 48.2202 49.5228 48.2951C49.9482 47.8033 48.9162 48.6401 51.057 46.504C51.9751 45.7661 49.5842 47.9978 50.1726 47.6081C50.8826 46.8996 50.7615 46.9436 50.8101 46.8707C51.7163 45.9691 51.7174 46.0178 51.6919 46.0887C52.0074 45.7114 53.187 44.6176 53.6185 44.0923C55.3684 42.327 53.5975 44.2627 54.7444 43.1136L55.3054 42.351L57.233 40.4614C59.9607 37.6628 56.664 40.6826 59.7652 37.4673C59.5839 37.7011 59.832 37.5233 60.3119 37.106C60.6055 36.8491 60.8951 36.5877 61.1806 36.3219L61.2431 36.2638L61.247 36.2603L61.249 36.2584L61.25 36.2574L61.2362 36.2709L61.2443 36.2638L61.2604 36.2495L61.2681 36.2427L61.2651 36.2465L61.2584 36.2536C61.2539 36.2601 61.2611 36.2568 61.2611 36.2591C61.2639 36.2618 61.2665 36.2648 61.2687 36.268C61.2715 36.2695 61.2693 36.2789 61.2717 36.2709C61.2722 36.2694 61.2725 36.2695 61.2695 36.2739L61.2648 36.2799L61.2646 36.2805L61.2646 36.2806L61.2505 36.2662L61.2515 36.2673L61.2556 36.2717C61.2631 36.2801 61.2871 36.3056 61.2732 36.2919C61.2975 36.3164 61.2386 36.2558 61.2636 36.2813C61.2633 36.2815 61.2628 36.2816 61.2636 36.281L61.271 36.271C61.2734 36.2674 61.2705 36.2719 61.27 36.2752C61.2687 36.2877 61.2698 36.2749 61.2665 36.2699L61.27 36.2752C61.2729 36.2754 61.2676 36.2799 61.2771 36.2759L61.2865 36.2715C61.2891 36.2704 61.295 36.2653 61.2881 36.2742L61.2764 36.291L61.2705 36.2996L61.2676 36.3038C61.2463 36.3105 61.2957 36.2956 61.2903 36.2974L61.2895 36.2984L61.2878 36.3003L61.2598 36.3297L61.0313 36.5685L60.5563 37.064C59.9111 37.7354 59.2298 38.4347 58.6472 38.9874C60.3267 37.4656 56.4538 41.2001 57.3746 40.4597C58.1231 39.6259 59.4361 38.3011 60.4878 37.2957L60.1599 37.6422C60.4238 37.3825 60.6824 37.1174 60.9356 36.8472L61.3051 36.4506L61.3515 36.4006L61.3631 36.388L61.3689 36.3817L61.3704 36.3801L61.3711 36.3794C61.3248 36.3461 61.4761 36.4526 61.2671 36.3048L61.2697 36.3013L61.2896 36.2726C61.2707 36.2805 61.2678 36.2747 61.2675 36.2719C61.2651 36.268 61.2676 36.2722 61.2683 36.2759C61.2698 36.288 61.2685 36.2759 61.2718 36.2704C61.272 36.2699 61.272 36.2705 61.2692 36.2742L61.2628 36.2821L61.2577 36.2875L61.2564 36.2888L61.2557 36.2895L61.2556 36.2897C61.2263 36.2573 61.248 36.281 61.2418 36.2741L61.2438 36.2754L61.2601 36.2868C61.2735 36.2704 61.2776 36.2731 61.2734 36.2737C61.2702 36.2751 61.2668 36.2759 61.2633 36.2761C61.2671 36.2764 61.2708 36.2774 61.2744 36.2789C61.2752 36.2793 61.274 36.2789 61.2687 36.2751L61.2579 36.2657L61.1991 36.2118L61.1821 36.2282L61.1484 36.261L60.8672 36.5304C60.1202 37.2837 60.2325 37.1148 60.3408 36.9594L59.5218 37.8189C59.3053 38.0435 59.1622 38.1852 59.1501 38.1751ZM60.7632 36.5198L60.9216 36.3644L61.0839 36.2054L61.1291 36.161L61.1405 36.1498L61.2576 36.2642L61.2624 36.2685C61.266 36.2717 61.2695 36.2747 61.2734 36.2774C61.2794 36.2798 61.2611 36.2739 61.2638 36.2754C61.2646 36.2757 61.2708 36.2742 61.2702 36.2744C61.2574 36.2764 61.2671 36.2744 61.275 36.2781C61.2755 36.2784 61.2725 36.2771 61.2653 36.271L61.2591 36.2655L61.1346 36.1405L61.1173 36.158L61.0479 36.228L60.7632 36.5198ZM32.7383 0.384352L33.1693 0.395942C33.0751 0.389224 32.9118 0.3862 32.7383 0.384352ZM34.8688 39.3869L35.4468 39.9712C35.256 39.7746 35.0634 39.5798 34.8688 39.3869ZM43.406 46.0898L43.3728 44.8892C43.3749 45.3629 43.388 45.7342 43.406 46.0898ZM22.9365 0.374442L22.8964 0.373434L22.7069 0.380993L22.9365 0.374442ZM27.2081 23.8813C26.9854 23.8668 26.7624 23.8564 26.5393 23.8499C26.5729 23.8642 26.8228 23.8743 27.2081 23.8813ZM43.4122 46.311L43.4149 46.2381L43.406 46.0898L43.4122 46.311ZM27.6689 36.7434C27.7317 36.9876 27.8412 37.2173 27.9912 37.42C28.0241 37.4631 28.0466 37.4932 28.0947 37.5478L28.1277 37.5846L28.1501 37.6082L28.1743 37.6323L28.207 37.6649L28.2196 37.6766L28.2453 37.7008L28.1618 37.6178L28.1472 37.6029L28.1108 37.5629C28.0145 37.4555 27.9304 37.3378 27.8598 37.212C27.7769 37.0644 27.7127 36.9069 27.6689 36.7434ZM28.9201 34.862C28.7667 34.9347 28.6265 35.0325 28.5052 35.1512C28.4011 35.2528 28.3123 35.3689 28.2415 35.4959C28.2413 35.4959 28.2693 35.4438 28.3201 35.3714C28.349 35.3303 28.3799 35.2905 28.4126 35.2523C28.4301 35.231 28.4499 35.2107 28.4696 35.1895L28.5193 35.1393C28.5404 35.1191 28.5719 35.0911 28.5965 35.0704L28.6636 35.0175C28.7042 34.9873 28.7462 34.959 28.7894 34.9327C28.8316 34.9068 28.8753 34.8832 28.9201 34.862ZM48.8932 51.245L49.6612 50.4479C49.2782 50.8343 49.0543 51.0694 48.8932 51.245ZM29.3334 38.37C29.3836 38.4108 29.4337 38.4518 29.4685 38.4776C29.3573 38.3725 29.3 38.3272 29.3334 38.37ZM39.7705 0.808642L39.7033 0.809146L39.6753 0.825774L39.7705 0.808642ZM42.4615 0.601368L43.4337 0.589611C43.1096 0.588265 42.7855 0.592184 42.4615 0.601368ZM11.0856 23.6168C10.7772 23.5793 10.0652 23.4497 10.4028 23.4737C10.1094 23.4471 9.96948 23.4453 10.0568 23.4789C10.1445 23.5091 10.4615 23.5823 11.0856 23.6168ZM34.3757 1.69972C34.552 1.68057 34.7712 1.66579 34.9915 1.65134C34.5819 1.672 34.2227 1.68913 34.3757 1.69972ZM34.9915 1.65134L35.5914 1.61926C35.3806 1.62833 35.1781 1.63908 34.9915 1.65134ZM18.5868 22.4709C18.6597 22.4806 18.7724 22.4885 18.9256 22.4912C18.8807 22.4719 18.7585 22.4677 18.5868 22.4709ZM44.2193 0.612287C44.3938 0.578357 48.6214 0.504619 45.0657 0.487318C45.2028 0.381665 47.3471 0.438439 48.2951 0.412236C47.6064 0.387545 48.6376 0.344377 48.4285 0.306752C47.9581 0.319518 47.3993 0.34992 46.6221 0.342361C46.2648 0.294154 47.4442 0.2614 48.365 0.279373C47.2303 0.223607 49.8046 0.195557 48.1988 0.152892C44.7661 0.190181 42.3403 0.228479 39.9264 0.382842C41.883 0.357479 44.072 0.3259 45.6768 0.368396L45.0022 0.459771C43.1883 0.379313 42.0688 0.439447 40.2848 0.43088L44.2922 0.479424C46.1694 0.555514 44.9135 0.57315 43.4337 0.589611C43.7976 0.590787 44.1269 0.596162 44.2193 0.612287ZM41.5192 1.41417L41.5864 1.41686C41.6452 1.4135 41.7179 1.41148 41.7552 1.40762L41.5192 1.41417ZM47.4413 50.0819L47.6603 49.8139C47.468 50.0282 47.4131 50.0986 47.4413 50.0819ZM39.1287 0.971572L39.1315 0.971572C39.1045 0.97258 39.0978 0.97258 39.1287 0.971572ZM42.3572 49.0291C42.3676 49.036 42.378 49.0427 42.3953 49.056C42.3715 49.0362 42.3695 49.0378 42.3572 49.0291ZM39.3193 48.7768C39.3274 48.7909 39.3279 48.797 39.3512 48.8264C39.4841 48.9518 39.4245 48.8863 39.3193 48.7768ZM42.3465 49.0303C42.3485 49.0283 42.3465 49.0224 42.3572 49.0289C42.3505 49.0264 42.3379 49.0179 42.3465 49.0303ZM45.1001 50.5402C45.1001 50.5402 45.0844 50.6908 45.0692 50.9374C45.0778 51.0649 45.0877 50.9812 45.1001 50.5402ZM13.0771 24.0639C13.4839 24.0653 13.7889 24.0629 14.0464 24.059C13.7233 24.0562 13.4002 24.0578 13.0771 24.0639ZM42.3953 49.056C42.463 49.1099 42.5568 49.1897 42.7083 49.3237C42.5416 49.1756 42.4511 49.0995 42.3953 49.056Z" fill="#202020"/>
<path d="M44.6386 36.9748L44.6486 37.2278L44.6532 37.0774L44.6386 36.9748Z" fill="#202020"/>
<path d="M44.7057 32.6847C44.7162 32.8312 44.7269 32.8982 44.7363 32.9805C44.7267 32.5977 44.7224 32.1348 44.7192 31.6505C44.715 31.1698 44.7256 30.6553 44.6696 30.1807C44.5695 29.2311 44.286 28.4738 44.1845 28.3345C44.2646 28.5607 44.3318 28.7911 44.3859 29.0249C44.459 29.3369 44.5227 29.7056 44.5509 30.0463C44.6112 30.7287 44.5524 31.2871 44.5307 31.0574C44.5551 32.1249 44.4869 33.7026 44.5028 34.2774C44.5559 32.5252 44.5848 34.0881 44.6177 35.2711C44.5893 36.3469 44.5395 35.0687 44.5215 35.9952L44.5322 38.4847L44.545 36.3162L44.6386 36.975L44.6297 36.7539C44.5861 33.085 44.7665 36.442 44.7057 32.6847ZM44.7363 32.9805C44.7405 33.1765 44.7482 33.3725 44.7593 33.5682C44.7578 33.2221 44.7482 33.0877 44.7363 32.9805ZM56.6109 39.9983C56.6759 39.9722 58.2276 38.5008 58.1496 38.477L56.7792 39.8155L56.6109 39.9983ZM0.902012 12.6067C0.912159 12.8475 0.931606 13.0879 0.9603 13.3272L0.98835 13.4651C0.976929 13.3186 0.917969 12.8469 0.902012 12.6067Z" fill="#202020"/>
<path d="M44.4741 30.4039C44.5118 30.7901 44.5176 30.9632 44.5307 31.0575C44.5254 30.8047 44.5052 30.5729 44.4741 30.4039ZM1.06664 12.4647C1.07318 12.1621 1.11248 11.7197 1.14423 11.6586C1.16993 11.0473 1.1795 10.614 1.27894 9.99484C1.158 10.6909 1.06277 11.5052 1.06664 12.4647Z" fill="#202020"/>
<path d="M55.6901 40.876L55.2989 41.2884L55.4945 41.0659L54.4394 42.0903L54.0193 42.5267C54.0692 42.475 54.1157 42.4201 54.1583 42.3622L53.8192 42.6894C53.0439 43.5699 51.0219 45.6689 50.4585 46.2944C50.0552 46.7209 49.6488 47.1444 49.2392 47.5649C48.8206 47.9948 48.3982 48.4209 47.9721 48.8433C48.1512 48.6633 48.3302 48.4833 48.5092 48.3031C48.6601 48.1478 48.8111 47.9925 48.9621 47.8372C49.1836 47.6032 49.3037 47.4633 49.1777 47.5604L47.7618 48.8747C47.2913 49.3121 46.8069 49.7747 46.0893 50.5117C46.0832 50.1101 46.0717 49.646 46.0525 49.0995C46.0528 49.5988 46.0534 50.098 46.0534 50.5984L46.3162 50.3345C46.2242 50.4331 46.1321 50.5319 46.0448 50.6192L45.8945 46.7635C45.9111 46.4434 45.9242 46.3972 45.9358 46.5161C45.9438 46.6146 45.9491 46.7133 45.9519 46.8121L45.9663 47.3632C45.9852 48.1835 46.003 49.238 46.0317 49.4826C46.012 48.6853 46.0104 47.8693 46.0169 47.1131L46.0315 46.1288L46.0507 45.2604C46.076 44.1488 46.0942 43.2278 46.025 42.5687C46.1069 42.3831 46.2438 42.0713 46.2356 40.2054C46.142 41.5508 46.1755 39.0865 46.0754 40.1904C46.0285 39.5456 46.1049 38.1086 46.0436 38.0014L46.0775 38.176C46.2074 34.9894 46.004 33.9463 45.9369 32.5831L45.9282 31.2425C45.9294 30.8216 45.9166 30.4531 45.8805 30.0894C45.8156 29.4242 45.6806 28.7677 45.4777 28.1309C45.2878 27.5338 45.0374 26.9577 44.7303 26.4116C44.4168 25.8543 44.0292 25.3015 43.5227 24.7447C43.5022 24.6835 43.385 24.4721 43.1443 24.1801C42.9038 23.8897 42.5364 23.518 42.027 23.1688C41.774 23.0312 41.0522 22.6027 40.3058 22.3241C39.5634 22.0343 38.8173 21.8927 38.6723 21.9107C39.0621 22.008 39.4472 22.1232 39.8264 22.2559L40.4377 22.4715C40.7516 22.5871 40.9767 22.6466 41.5424 22.9734C41.9747 23.306 41.9719 23.3492 42.0229 23.4051C42.0668 23.4688 42.1743 23.5345 42.7106 24.0315C42.4956 23.8302 42.1246 23.5217 41.6401 23.2109C41.102 22.8656 40.5292 22.5776 39.9311 22.3516C39.327 22.1236 38.7019 21.9557 38.0649 21.8504C37.4843 21.7533 36.9827 21.7214 36.6589 21.6965L36.8878 21.6937L37.1169 21.6965C36.6063 21.6587 36.1692 21.647 35.7755 21.6154C35.3799 21.5875 35.0161 21.5573 34.6078 21.5331C33.7911 21.4849 32.7961 21.4617 31.0107 21.5329L29.3069 21.5914C29.389 21.5818 29.3982 21.5707 29.4422 21.5622C26.6533 21.5523 27.4147 21.4439 24.3357 21.5294C24.5737 21.5229 24.4242 21.5123 24.6661 21.5059C22.911 21.4525 21.1411 21.5598 19.8141 21.5823C19.0043 21.5029 20.0064 21.5042 20.5073 21.4466C17.4199 21.4159 14.0879 21.5521 12.1705 21.649L11.8554 21.6399C11.6207 21.6317 11.3865 21.6144 11.1531 21.588C10.6435 21.5363 10.1448 21.4216 10.1448 21.4216C10.7423 21.5259 11.416 21.5546 11.8873 21.5244C12.3543 21.4962 12.6222 21.4612 12.443 21.4379C11.8972 21.4476 11.6712 21.4575 11.3912 21.4486C11.1118 21.4347 10.7692 21.4293 10.0026 21.2632C10.2737 21.2716 10.9281 21.3473 11.6552 21.307C10.8604 21.2518 10.427 21.159 10.1789 21.1243C9.93151 21.0838 9.86919 21.0887 9.8366 21.0992C9.80401 21.1098 9.80082 21.1254 9.67182 21.0955C9.54467 21.0609 9.286 20.9896 8.7737 20.762C8.30355 20.5866 7.93889 20.4294 7.67333 20.3195C7.4076 20.2098 7.24115 20.1475 7.17732 20.1457C7.17732 20.1457 6.78982 19.8936 6.43339 19.6031C6.07376 19.3164 5.74891 18.9934 5.74891 18.9936C5.64947 18.9543 5.16656 18.5604 4.66736 17.9582C4.15993 17.3636 3.66442 16.5528 3.3609 15.8697C3.30984 15.7923 3.40625 16.0793 3.5796 16.4366C3.74958 16.7954 4.00758 17.2156 4.18445 17.4397C4.1265 17.4122 3.86128 17.0722 3.58598 16.5995C3.30934 16.1282 3.04075 15.5186 2.88269 15.0241C2.89143 14.9213 2.75957 14.4688 2.64771 13.8474C2.53332 13.2269 2.45656 12.4337 2.48679 11.6908C2.50947 10.9474 2.63343 10.2607 2.74631 9.845C2.86153 9.42877 2.93678 9.27676 2.90134 9.57994C3.1837 8.47101 3.72187 7.30111 4.51082 6.26726C5.29389 5.22989 6.32572 4.34049 7.45128 3.71431C8.57566 3.08258 9.78722 2.72195 10.8884 2.58488C11.4375 2.50997 11.9698 2.50527 12.4334 2.50023L13.7029 2.47688C14.689 2.52223 16.699 2.52442 15.4943 2.60134C19.1416 2.60202 21.0226 2.43388 24.6429 2.47873C24.9424 2.49922 23.0064 2.48024 23.135 2.53483C25.5012 2.46915 27.4402 2.6042 31.1117 2.56036C30.4939 2.56339 30.3138 2.59715 30.228 2.61411C30.1635 2.5869 31.732 2.55784 32.6819 2.53147C33.2155 2.54558 31.971 2.55112 32.2705 2.57195C39.3627 2.65157 44.7659 2.42868 51.8197 2.43607C50.8124 2.43506 50.1185 2.4616 49.6737 2.49401C49.229 2.52643 49.0333 2.56456 49.0225 2.5869L50.996 2.58892C51.7564 2.53466 53.2382 2.53483 54.4773 2.49435C54.6293 2.51468 55.2322 2.53668 54.6172 2.56221C56.5663 2.61714 58.0886 2.56759 59.7208 2.51148C60.5368 2.48343 61.3803 2.45354 62.3184 2.43439C62.8139 2.42414 63.3094 2.4177 63.805 2.41507L64.1903 2.41305C64.2786 2.40872 64.3645 2.38295 64.4406 2.33797C64.5222 2.28962 64.59 2.2209 64.6372 2.13852C64.6843 2.05614 64.7093 1.96292 64.7096 1.868L64.7098 1.92175C64.7098 1.94224 64.7066 1.98826 64.6949 2.03731C64.672 2.13641 64.6008 2.28557 64.439 2.38568C64.3564 2.43455 64.2662 2.46815 64.1416 2.47151L63.6529 2.48998L62.5909 2.5303L59.6985 2.63964L61.1297 2.7159L58.5862 2.81551C60.1051 2.87547 61.4264 2.73673 61.6093 2.81904C61.2883 2.84221 60.5148 2.83482 60.4906 2.87917C61.9489 2.91125 62.0638 2.84994 63.1601 2.83398C60.2714 3.00128 54.6077 2.99859 51.5595 3.03974C51.08 3.05285 51.97 2.99943 52.0549 2.9823C50.8112 2.98784 50.0646 2.93577 48.4991 2.96483C47.5269 3.03555 49.2409 3.0169 50.0125 3.02429C49.9062 3.08577 49.518 3.08207 48.6587 3.09131C48.4721 3.00934 43.9413 3.06225 42.8337 2.96214C38.2421 2.98801 43.5681 3.17446 39.0857 3.13885L37.7466 3.04495C35.1443 3.11751 31.7789 3.18168 28.8342 3.16169L29.4545 3.15867C29.8679 3.11852 29.1851 3.09383 28.8827 3.07334C26.6573 3.03319 24.6578 3.14708 23.3095 3.05318C20.7717 3.15295 16.5402 3.22669 13.6384 3.27826C12.8557 3.15463 17.4237 3.17328 18.6313 3.09601L15.9898 3.09652C17.6226 3.09484 18.2675 3.04781 19.2462 2.97743C16.9313 2.95442 16.1699 3.06276 13.9754 3.094C14.1462 3.0604 13.8531 3.03974 12.8407 3.03874L12.5533 3.12087C12.5347 3.11415 12.4228 3.10794 12.1101 3.10273L11.9446 3.10559C11.8423 3.10727 11.6962 3.11231 11.5212 3.12339C10.4717 3.19225 9.443 3.44794 8.48344 3.87841C8.85314 3.73866 9.05824 3.69885 9.28012 3.6488L10.2073 3.44455C9.86482 3.47848 10.6496 3.25054 11.6093 3.21359C11.1928 3.26617 11.4266 3.25693 11.76 3.25609L12.0224 3.26045L12.2849 3.26902C12.4433 3.27524 12.5562 3.28296 12.5508 3.29405C12.3017 3.29455 12.0276 3.2917 11.7871 3.29657C11.5391 3.30329 11.2877 3.32008 11.0367 3.34797C10.5347 3.40239 10.0356 3.5072 9.56836 3.6446C8.63109 3.91889 7.83609 4.3457 7.32194 4.68987L7.1323 4.76898L6.94384 4.85297C6.19302 5.36745 5.52081 6.0358 5.00498 6.72531C4.48613 7.41466 4.12062 8.11811 3.87707 8.68333C3.87724 8.68333 3.90462 8.5896 3.93535 8.49671C3.95479 8.43435 3.97557 8.37241 3.99767 8.31094C3.52098 9.29843 3.25777 10.3736 3.18739 11.4278C3.11415 12.4843 3.22854 13.5154 3.46 14.4648C3.76739 15.3984 4.28255 16.3906 4.94283 17.2106C5.59573 18.0368 6.37577 18.6844 7.0411 19.0935C7.22603 19.1933 7.60245 19.4473 8.13256 19.7211C8.66132 19.9953 9.34932 20.2819 10.1121 20.4636C10.4993 20.5571 10.8929 20.6226 11.2895 20.6595C11.4891 20.6771 11.6885 20.6899 11.8862 20.6926C12.0818 20.6968 12.3044 20.6954 12.5066 20.6959C13.3312 20.6958 14.0897 20.6837 14.6714 20.6494C14.8283 20.66 13.073 20.723 12.2792 20.7598C13.8272 20.7749 15.0577 20.6535 15.543 20.7562C12.0692 20.7216 15.7296 20.8382 14.165 20.8674C15.7913 20.8656 17.5062 20.847 18.3041 20.8103C15.6718 20.8112 19.2388 20.6682 16.5742 20.7131C18.639 20.6266 21.4567 20.5921 23.9173 20.6256C23.8929 20.6699 24.1963 20.6906 25.1134 20.7089L25.8533 20.6445C27.0045 20.6561 23.627 20.7206 25.9448 20.7435C28.3296 20.6335 33.1265 20.806 34.1706 20.6026C35.9882 20.6828 30.7118 20.6839 33.4512 20.7823C31.8575 20.8559 29.6591 20.7717 29.1339 20.8732C30.6958 20.8443 29.7039 20.959 30.7118 20.96L32.4538 20.8973L32.0683 20.8935C32.7993 20.8695 33.6368 20.8545 34.5404 20.8449L35.9403 20.8345L36.6708 20.8325C36.9312 20.8333 37.1916 20.8441 37.4512 20.8649C38.5122 20.9511 39.5528 21.2049 40.5344 21.6168C41.5135 22.0256 42.4064 22.5871 43.1613 23.2183C44.4635 24.2609 45.367 25.407 46.0441 26.762C46.3757 27.4433 46.6473 28.1838 46.8223 29.0148C46.9144 29.448 46.9763 29.887 47.0074 30.3288C47.0254 30.5584 47.0314 30.7986 47.0331 31.0368L47.0329 31.7296C46.973 30.61 46.9752 34.8796 46.8651 32.4919C46.8418 33.2938 46.8386 34.0962 46.8557 34.8982C46.8704 35.555 46.8971 35.9969 46.9192 36.0142C46.9345 34.4701 46.9335 35.4713 46.9553 34.1704C47.0091 35.0485 47.0067 37.0721 46.9716 37.9037C46.9755 37.5184 46.9653 37.6648 46.9483 37.5798C46.9122 39.4236 47.0017 38.4635 47.0242 39.7957C46.949 40.2184 47.0041 42.7376 46.9651 43.9544L47.0724 45.7188C47.0371 45.234 47.0306 45.6568 47.0249 46.2353L47.0203 46.6868L47.0173 46.8358L47.0135 46.9332C47.0074 47.0585 46.998 47.1646 46.9819 47.209C47.0131 47.5706 47.0593 47.8128 47.0845 48.1106C47.2514 47.9207 47.4266 47.7382 47.6096 47.5637C47.497 47.7023 47.6141 47.604 47.7834 47.4598C47.8674 47.388 47.9638 47.3059 48.0455 47.2412L48.0754 47.2181L48.1274 47.1729L48.2245 47.0907C48.2803 47.0452 48.3167 47.0202 48.3261 47.0237C50.7074 44.739 52.0515 43.022 54.3335 40.8848C54.2768 40.9652 53.8641 41.4445 54.5227 40.8112C55.0172 40.2885 55.9138 39.4036 56.4526 38.8539L56.437 38.8724L56.4639 38.8426C56.7278 38.5732 56.889 38.3993 56.8833 38.3805C57.7653 37.3994 58.195 36.8683 59.9865 34.9929C59.794 35.0695 58.2685 36.6399 57.617 37.3287L57.0949 37.9653C56.454 38.4313 55.4569 39.6339 55.0057 40.0261C55.5043 39.425 56.5519 38.3387 57.7043 37.1574L59.4562 35.3628L59.8799 34.9261L59.9558 34.851L60.0379 34.7781L60.1066 34.7234C60.1975 34.6543 60.2942 34.5932 60.3957 34.5409C60.5959 34.4377 60.8125 34.3702 61.0358 34.3414C61.3038 34.3065 61.576 34.3273 61.8355 34.4026C62.095 34.4778 62.3362 34.6059 62.5439 34.7788C62.584 34.8115 62.6216 34.8463 62.6587 34.8816L62.7043 34.9271L62.7547 34.9815C62.8027 35.0349 62.8289 35.0695 62.861 35.1109C62.891 35.1517 62.9206 35.193 62.9475 35.2358C63.0016 35.3202 63.0491 35.4085 63.0896 35.5002C62.9157 35.0495 62.5279 34.5915 61.9313 34.3711C61.6217 34.2579 61.2891 34.2224 60.9626 34.2678C60.6041 34.3177 60.2656 34.4626 59.982 34.6874C59.7856 34.8534 59.7868 34.866 59.7169 34.9281L59.5422 35.0944L59.1794 35.4424L58.4086 36.1909C57.3469 37.2286 56.1664 38.4077 55.0718 39.5121L56.075 38.5782L54.9256 39.73L56.1009 38.6778C55.0002 39.757 54.0739 40.715 53.0854 41.6966C54.2375 40.5421 54.7667 40.1728 54.1016 40.8126C52.7595 42.0409 52.7995 42.1889 51.8135 43.1678C52.3656 42.6261 53.0778 41.9159 52.6525 42.4078C50.646 44.2752 50.1681 44.8438 48.3322 46.5311C48.411 46.5007 48.3134 46.6236 48.1197 46.8304L47.8733 47.0894L47.75 47.215C47.5746 47.3909 47.3951 47.5666 47.3084 47.7324L47.5709 47.486C47.423 47.6603 47.275 47.8345 47.1457 47.964C47.1305 47.9052 47.1154 47.838 47.1001 47.7619C47.128 47.4912 47.149 47.4166 47.1661 47.4018C47.1833 47.3894 47.1964 47.4413 47.2085 47.4762C47.2206 47.512 47.2318 47.5311 47.2448 47.4732C47.2577 47.4169 47.2726 47.28 47.2923 47.046C47.294 46.9579 47.2934 46.8698 47.2906 46.7817L47.2777 45.9981C47.2659 45.5199 47.249 45.1544 47.2313 44.8101C47.1959 44.121 47.1572 43.5174 47.1519 42.2683C47.1923 42.6797 47.23 43.3808 47.2572 44.2309C47.2708 44.6559 47.2817 45.1181 47.2891 45.6L47.2998 46.8495L47.3059 46.802C47.3096 46.822 47.3145 46.6209 47.3193 46.4773L47.3388 45.8669C47.3491 46.0078 47.3566 46.2504 47.362 46.5583L47.3657 46.7775L47.3687 46.8292L47.3727 46.9396C47.3768 47.0914 47.3751 47.2654 47.3727 47.4139L47.4527 47.3368L47.3435 47.4846C47.3281 47.4614 47.3208 47.485 47.3168 47.5491C47.4006 47.4792 47.6467 47.2224 47.7846 47.1482C47.7849 47.0922 47.7241 47.1299 47.7028 47.1305C47.6774 47.1352 47.6984 47.0964 47.7903 46.96C47.6287 47.1235 47.5676 47.191 47.4072 47.3308C47.4104 47.3089 47.4146 47.2466 47.4199 47.1772C47.4178 47.2251 47.4168 47.2689 47.4171 47.3069C47.5241 47.1986 47.6104 47.0875 47.6581 47.0054C47.6787 46.9715 47.6953 46.9353 47.7075 46.8976C47.7117 46.8843 47.7148 46.8707 47.7166 46.8569L47.7171 46.8524L47.7172 46.8502L47.7297 46.8358L47.7841 46.7733L47.8926 46.649C48.4701 45.9873 49.0536 45.3313 50.3757 44.0528C49.1235 45.3551 50.9009 43.6873 51.0815 43.5604C51.6759 42.9527 52.882 41.7203 53.3694 41.2049L52.8354 41.579C54.4153 39.93 55.1455 39.5387 56.9261 37.5929C57.1203 37.3029 55.271 39.2155 55.5968 38.8712C56.8463 37.5713 57.7329 36.724 58.5976 35.9262L59.2473 35.3309L59.579 35.0284L59.7483 34.8737L59.7912 34.8347L59.8349 34.7936L59.8569 34.7746L59.9059 34.7316L59.9756 34.674C60.0135 34.6445 60.0525 34.6164 60.0923 34.5897C60.7305 34.1501 61.6506 34.1042 62.3589 34.5787C62.4463 34.6372 62.5299 34.7019 62.6073 34.7734L62.6643 34.828L62.7123 34.8765L62.7234 34.889L62.7567 34.9266L62.8235 35.0055C63.0349 35.2712 63.1751 35.5864 63.2308 35.9213C63.2866 36.2563 63.2561 36.5999 63.1422 36.9197C63.1144 37.0232 63.095 37.0971 63.063 37.1873C63.0188 37.3128 62.9589 37.4322 62.8847 37.5427C62.859 37.5822 62.8284 37.6232 62.7935 37.6678L62.7365 37.7359L62.7106 37.77C62.6767 37.8148 62.6359 37.8667 62.586 37.9277C62.4488 38.0937 62.3077 38.2565 62.1631 38.416C62.3638 38.1192 61.7534 38.6804 62.6089 37.7545C61.8318 38.4911 60.9705 39.423 60.3215 40.1093C61.9251 38.5619 59.7458 40.823 59.4843 41.1419C58.6601 41.95 59.6852 40.8451 60.1733 40.3293C59.5053 40.9715 58.656 41.6793 58.3559 42.1234C58.3176 42.111 58.7424 41.6198 59.3266 40.9783C59.9109 40.337 60.655 39.5451 61.2559 38.9311L60.429 39.7418C60.9673 39.1517 61.08 39.0534 61.9009 38.2485C61.0661 39.005 61.1012 38.8831 61.2507 38.6617C61.3622 38.565 61.2046 38.7319 61.3115 38.6394C61.9788 37.9979 62.4671 37.4817 62.2884 37.6069C62.8089 36.9505 61.338 38.4721 60.8608 38.8818L59.8755 39.8941L56.6932 43.5127C55.2658 44.991 54.5603 45.5919 53.4361 46.6503L53.1949 47.0081C51.9247 48.2662 50.7135 49.4406 51.4497 48.5566C51.5147 48.5306 51.6769 48.3589 51.9541 48.0873C51.9825 48.0431 52.0403 47.9741 52.1155 47.8898L52.1681 47.8169L49.9245 50.1269C52.1385 47.7438 49.9334 49.9064 50.2146 49.4181L47.9265 51.7735C49.3667 50.3989 48.003 51.7982 47.5174 52.3117C47.4604 52.3349 47.2792 52.5022 47.0301 52.7479L46.6127 53.1672L46.5336 53.2466C46.5037 53.2765 46.4726 53.3054 46.44 53.3331C46.375 53.3887 46.3055 53.4413 46.2292 53.4846L46.1719 53.5174L46.1447 53.5328L46.1472 53.5315L46.1477 53.5312L46.0547 53.5768L46.0498 53.5789L46.0305 53.5864L46.0062 53.5955L45.9485 53.6158L45.885 53.6366C45.7863 53.6649 45.7634 53.6721 45.6502 53.6979L45.5857 53.7127L45.5034 53.7124C45.402 53.7122 45.3435 53.7105 45.2412 53.7027C45.214 53.7 45.1883 53.6981 45.1396 53.6904L45.0758 53.678L45.0076 53.6603L44.8861 53.6225L44.867 53.6166L44.8349 53.6032C44.7788 53.5797 44.7435 53.5639 44.6923 53.5387L44.6488 53.5164L44.5989 53.488L44.5492 53.4586L44.5 53.429L44.481 53.4173L44.4738 53.4127L44.4702 53.4104L44.4686 53.4092L44.3359 53.2983L44.3313 53.294L44.3132 53.276L44.2406 53.2048L43.9598 52.9298C43.7985 52.7691 43.6372 52.6084 43.476 52.4476L43.5483 52.4958C42.8154 51.7226 41.4891 50.4076 40.5337 49.4838C40.5567 49.5456 39.2548 48.434 38.618 47.9119C40.2072 49.5447 39.2271 48.6112 39.3196 48.776C39.1562 48.606 38.8572 48.3055 38.8147 48.2779C38.5673 48.0636 39.1053 48.6125 39.1312 48.6769C40.8713 50.3628 42.6411 52.1172 43.4228 52.7367C42.9345 52.1748 42.4906 51.8746 41.9272 51.2622C42.2722 51.5656 42.6434 51.9141 43.0499 52.3087L43.6875 52.9352L44.0283 53.2748L44.116 53.3623L44.1602 53.4072L44.1823 53.4297L44.1879 53.4354L44.1892 53.4368L44.1899 53.4376C44.2459 53.4846 44.3021 53.5315 44.3584 53.5782L44.3686 53.5849L44.3952 53.6017L44.4561 53.6393L44.4875 53.6583L44.5527 53.6961C44.6421 53.7431 44.6765 53.7586 44.7556 53.793L44.7872 53.8068L44.8208 53.8175L44.9451 53.8577L45.0203 53.878L45.0393 53.8824L45.0924 53.893C45.1566 53.904 45.1851 53.9064 45.2165 53.9099C45.3311 53.9198 45.3887 53.9225 45.5036 53.924L45.6037 53.9254L45.6919 53.9056L45.7883 53.8836L45.8582 53.8661L45.943 53.8427L46.033 53.814L46.0796 53.7981L46.1262 53.7806L46.1343 53.7774L46.1383 53.7757L46.2564 53.7173L46.2561 53.7174L46.2554 53.7179L46.2509 53.7206L46.262 53.7144L46.35 53.6649C46.4088 53.6309 46.4651 53.5928 46.5185 53.5508C46.5729 53.5088 46.6249 53.4638 46.6743 53.4159L46.7933 53.2985L46.9701 53.1221L47.486 52.7037L48.8932 51.2438C48.3206 51.8679 48.7318 51.5587 47.2372 53.0728C47.4752 52.9266 48.7185 51.5706 49.6551 50.6649L50.0614 50.1293C49.916 50.3466 51.8943 48.3824 50.5428 49.8321L48.3169 52.1639L48.9945 51.5747L47.0803 53.5135L47.5014 53.0256L46.9113 53.6274C46.7642 53.775 46.5955 53.8994 46.4111 53.9964L46.4163 53.9932L46.2605 54.0703L46.2588 54.071L46.2554 54.0723L46.2489 54.075L46.2228 54.0853L46.1907 54.097L46.1525 54.1105L46.1034 54.1269L46.0265 54.1511L45.9658 54.1681L45.876 54.1911L45.7544 54.2186L45.6356 54.2457L45.5033 54.2435C45.3905 54.243 45.2778 54.2368 45.1656 54.225L45.1013 54.217C45.0685 54.2118 45.0571 54.2116 44.973 54.1936L44.9115 54.1783L44.8408 54.1582L44.7195 54.1175L44.6708 54.1012L44.6327 54.0848C44.5766 54.0603 44.545 54.0451 44.5042 54.0253C44.464 54.005 44.4256 53.9872 44.3392 53.9358L44.2705 53.8921L44.2386 53.8716L44.2188 53.8589L44.196 53.8439L44.1897 53.8399L44.1865 53.8379L43.9642 53.6521L43.9615 53.6491L43.8108 53.4858C43.7403 53.4089 43.6717 53.3303 43.605 53.2501L43.3363 52.9149C43.1297 52.6685 42.7462 52.2653 41.4579 51.0388C40.4042 50.1415 39.3489 49.1033 37.4616 47.1779C38.8589 48.5401 37.6593 47.2652 38.2245 47.7398C36.8502 46.3001 36.3097 45.8886 35.5488 45.1887C35.2321 44.7894 35.0114 44.5008 36.2625 45.7641C36.5077 45.8362 34.5933 44.1249 34.5688 43.922C32.4847 41.8404 31.5778 41.0776 30.5975 40.2129C30.0243 39.7097 29.4636 39.1925 28.9158 38.6617L28.3681 38.1252L28.0651 37.8232L28.0021 37.7584L27.9655 37.7186L27.9038 37.6472C27.8397 37.5679 27.7842 37.4915 27.7322 37.4056C27.5147 37.0514 27.4049 36.6417 27.416 36.2262C27.4296 35.6927 27.6414 35.1835 28.0101 34.7978L28.0404 34.7665L28.0832 34.7249L28.1099 34.7002L28.1961 34.6251C28.5115 34.3646 28.8952 34.2002 29.3014 34.1514C29.7076 34.1027 30.1192 34.1717 30.4873 34.3501C30.6679 34.438 30.8351 34.5509 30.984 34.6856L31.0569 34.7548L31.0956 34.7942L31.0862 34.7879C31.0771 34.7811 31.0793 34.7853 31.0506 34.761C31.0042 34.7222 30.94 34.6728 30.8727 34.6278C30.7385 34.5366 30.5917 34.4697 30.5917 34.4697C30.7385 34.5514 30.8747 34.6508 30.9973 34.7657L31.1671 34.9301L31.4498 35.2059L31.9939 35.7389L33.0097 36.7417L34.8577 38.5866C36.0478 39.7799 37.2073 40.9469 38.6548 42.3661L40.8203 44.7146C40.3016 44.224 38.876 42.9352 39.4653 43.6126C38.46 42.4222 37.2625 41.2894 36.1293 40.0567C35.9845 39.9599 36.4487 40.4592 36.6437 40.6836C35.9307 39.9688 35.6139 39.5691 34.6552 38.6424C34.6815 38.7071 35.6872 39.7587 34.9007 38.9946L33.6751 37.6549C32.8036 36.8105 32.5582 36.6333 32.2819 36.4119C32.1024 36.2682 31.9291 36.1168 31.7626 35.9581C31.6448 35.8472 31.5046 35.7113 31.3316 35.5395L31.0463 35.2533L30.8829 35.0872L30.8396 35.0432L30.7653 34.9703C30.6997 34.9101 30.6281 34.8525 30.5502 34.7998C30.6105 34.8351 30.6738 34.8755 30.7361 34.9239L30.8822 35.0425L31.0937 35.2116C31.2626 35.3489 31.4298 35.4882 31.5951 35.6297C31.9945 35.9706 32.3834 36.3237 32.7611 36.6884C31.8513 35.7564 34.0197 37.8855 33.2096 37.0146C32.5085 36.3888 32.0128 35.9008 31.4659 35.3546L31.0422 34.9311L30.9867 34.8757L30.9306 34.8218C30.6164 34.5275 30.2146 34.3439 29.7864 34.2989C29.3512 34.2528 28.9129 34.3524 28.5404 34.5823C28.4359 34.647 28.3376 34.7212 28.2466 34.804L28.2134 34.8354L28.1956 34.8529L28.159 34.8895L28.1388 34.911L28.0988 34.9545C28.0731 34.9847 28.0468 35.0144 28.0226 35.0465C27.8693 35.2423 27.7547 35.4656 27.6851 35.7043C27.5863 36.0426 27.5804 36.4013 27.6682 36.7427C27.6247 36.5774 27.6065 36.438 27.6001 36.3023L27.5976 36.2159C27.5971 36.1998 27.5972 36.1837 27.5981 36.1676L27.6011 36.101C27.6167 35.8351 27.6877 35.5754 27.8096 35.3386C27.8697 35.2216 27.9417 35.111 28.0243 35.0086L28.0975 34.9231L28.1373 34.8802L28.1872 34.8304L28.2058 34.812L28.2603 34.7627C28.3058 34.7222 28.3379 34.6977 28.3743 34.6696L28.2952 34.7311L28.2435 34.7753L28.1993 34.8149L28.1766 34.8361L28.1 34.914C27.875 35.1544 27.7129 35.4465 27.6279 35.7646C27.5207 36.1543 27.5264 36.653 27.7409 37.1211C27.7949 37.2391 27.8601 37.3516 27.9356 37.4572L27.995 37.536C28.0148 37.5617 28.0473 37.5993 28.0741 37.6295L28.1143 37.6736L28.1648 37.7258L28.4002 37.9672L29.6625 39.2614C29.0741 38.585 31.8227 41.325 31.6507 41.022C30.3019 39.646 29.8177 39.168 29.2874 38.6412L28.3431 37.6961C28.2871 37.6356 28.2676 37.6302 28.1182 37.4554C27.8799 37.161 27.7371 36.801 27.7088 36.4234L27.7044 36.3471L27.7036 36.2478L27.7048 36.2127L27.7105 36.118C27.7407 35.7769 27.864 35.4507 28.0669 35.1749C28.103 35.1263 28.1414 35.0794 28.1818 35.0344L28.2448 34.9679L28.2987 34.9158C28.3957 34.8254 28.5022 34.7457 28.6163 34.6782C28.859 34.5346 29.1311 34.4482 29.4122 34.4255C29.6932 34.4027 29.9757 34.4442 30.2383 34.5468C29.9063 34.4218 29.5452 34.3959 29.1989 34.4722C28.8406 34.5513 28.5147 34.7368 28.2638 35.0045C27.9802 35.3067 27.8097 35.6974 27.781 36.1108L27.7772 36.1956C27.7762 36.226 27.7773 36.222 27.7773 36.2369C27.7779 36.5904 27.8843 36.9356 28.0829 37.2279C28.1323 37.3008 28.1873 37.3698 28.2472 37.4344C28.2922 37.4836 28.2927 37.4804 28.3105 37.4979L28.3326 37.52L28.3382 37.5249L28.3491 37.5346L28.3711 37.554L28.4581 37.6302L28.7888 37.9168C28.9676 38.0706 29.1489 38.2213 29.3329 38.3688C29.3574 38.3983 29.4001 38.4452 29.4947 38.542C30.034 38.952 29.5677 38.4507 29.6903 38.3469C29.3405 38.0345 28.9966 37.7153 28.659 37.3897L28.5292 37.2625L28.5144 37.2472L28.486 37.2157C28.4373 37.161 28.3932 37.1024 28.3541 37.0405C28.2528 36.8817 28.1839 36.7043 28.1514 36.5188C28.1189 36.333 28.1233 36.1426 28.1644 35.9586C28.2054 35.7745 28.2824 35.6003 28.3908 35.446C28.5019 35.2878 28.6438 35.1536 28.8078 35.0513C28.9718 34.949 29.1547 34.8808 29.3457 34.8505C29.5471 34.8187 29.753 34.8298 29.9498 34.8831C30.1467 34.9363 30.3301 35.0306 30.488 35.1596L31.6898 36.3164C31.8781 36.4427 31.6551 36.1801 31.279 35.7841C31.1844 35.6856 31.0806 35.5781 30.9723 35.4658L30.805 35.2953L30.7191 35.2084L30.6735 35.1628C30.4477 34.9382 30.1581 34.7887 29.8443 34.7346C29.5305 34.6805 29.2076 34.7245 28.9197 34.8606C29.1025 34.7732 29.3005 34.722 29.5027 34.7097C29.8937 34.6866 30.2792 34.8102 30.5838 35.0564C30.6071 35.0759 30.631 35.0951 30.6531 35.1159L30.7076 35.1666L31.4653 35.8835L31.1466 35.6217L34.8685 39.3855C34.156 38.6795 33.8791 38.4746 33.4821 38.1314C33.9626 38.617 34.4245 39.1115 34.9152 39.6383C34.8675 39.4723 34.9765 39.4979 35.4465 39.97C37.8404 42.3925 39.126 43.7843 39.947 44.7405L40.2316 45.0168C40.0601 44.7845 40.5147 45.185 41.1134 45.7287L42.0591 46.5912L42.4998 46.9886L42.6923 47.1588C42.7072 47.1719 42.722 47.1848 42.7366 47.1972L42.7581 47.2159L42.7687 47.2236L42.8075 47.2508C42.7686 47.2746 42.9108 47.4357 43.1107 47.6465C43.3108 47.8577 43.5563 48.1068 43.7537 48.336C43.811 48.3214 43.7282 48.153 43.6124 47.9548C43.4902 47.7497 43.3622 47.5483 43.2285 47.3506C43.1132 47.2683 43.0222 47.2019 42.9577 47.1589C42.9313 47.1408 42.9042 47.1239 42.8764 47.108L42.7534 47.0143C42.6127 46.9135 42.5757 46.9238 42.1446 46.5856L39.4703 44.0357L40.1116 44.5623C38.8334 43.2333 37.5053 42.0567 37.6757 42.0777C38.4143 42.7168 39.5214 43.8845 40.2549 44.5181L39.4199 43.6284C41.0146 45.0764 40.1291 44.4788 42.0223 46.27C41.7152 45.8995 41.7581 45.94 41.9816 46.1666L42.4314 46.6179L42.7183 46.8952L42.8703 47.0377L42.9063 47.0704L42.9192 47.0801L42.9451 47.0986L42.9291 47.0749C42.9207 47.0642 42.9258 47.067 42.8918 47.0311L42.7173 46.8465L42.2776 46.3958L41.2563 45.3677C40.5974 44.7017 40.0947 44.1761 40.4254 44.399C40.928 44.8544 41.7019 45.6917 42.5223 46.5603C42.6249 46.6688 42.7284 46.7778 42.8317 46.8866L42.9093 46.9683L42.9481 47.0089C42.9636 47.0252 42.9577 47.0197 42.9636 47.0264L43.0014 47.0709C43.0528 47.1304 43.1075 47.1907 43.1614 47.2449C43.2689 47.3534 43.3729 47.4388 43.4196 47.4319L43.4164 47.4532L43.5395 47.5805C43.5397 47.3195 43.5209 47.1079 43.4957 46.9683C43.4857 46.9103 43.4722 46.853 43.455 46.7968L43.4497 46.7803C43.448 46.7711 43.4461 46.7823 43.4445 46.7424L43.434 46.5714L43.4144 46.2356C43.4638 45.1104 43.3942 43.5568 43.3887 42.3372L43.433 42.3671L43.4146 40.6466C43.4954 41.466 43.4124 42.6631 43.4241 44.141L43.5066 43.9571C43.4576 44.809 43.4705 45.519 43.5043 46.1813L43.533 46.6705L43.5368 46.7306C43.5382 46.7499 43.5395 46.7763 43.5409 46.7748L43.5489 46.805L43.5657 46.8697C43.5881 46.9595 43.6107 47.0662 43.6286 47.1856C43.6196 47.1028 43.6133 47.0195 43.6086 46.935L43.6029 46.8075L43.6007 46.6779L43.599 46.4518L43.5916 44.6258C43.5854 43.4522 43.5681 42.4625 43.4875 42.2366L43.5706 41.047L43.5405 40.4778C43.603 39.5914 43.7009 40.4964 43.7196 42.2151C43.6988 42.5136 43.6884 42.6631 43.6712 42.5725C43.708 43.3702 43.772 44.1027 43.753 46.0332L43.7093 45.0032L43.7112 46.5658L43.7135 46.8317L43.7166 46.9669L43.7251 47.2305C43.7386 47.5757 43.7604 47.9044 43.7918 48.1903C43.7612 48.1706 43.7364 48.1572 43.7157 48.1489L43.8195 48.2571L43.8389 47.1465L43.8501 45.108L43.8541 40.2747C43.6679 39.3136 43.5634 38.1734 43.3902 37.6836C43.3742 36.5905 43.3603 35.3018 43.3583 34.0493L43.3653 32.2262L43.3899 30.6854L43.4295 30.8334C43.4274 30.1204 43.294 29.4139 43.0361 28.7492C42.9125 28.3498 42.9812 28.4744 43.0643 28.6321C43.1431 28.7907 43.2259 28.985 43.1421 28.7008C43.1421 28.7008 43.0848 28.5406 42.9802 28.3085C42.852 28.0251 42.705 27.7506 42.5403 27.4868C42.3759 27.2235 42.1938 26.9717 41.9952 26.7331C41.8331 26.5381 41.7154 26.4166 41.7154 26.4166C41.799 26.4509 42.2332 26.8948 42.6092 27.524C42.8036 27.8471 42.9696 28.1864 43.1055 28.5381C43.225 28.8463 43.3219 29.1628 43.3952 29.4851C43.3482 29.2844 43.2157 28.8913 43.2429 29.022C43.3267 29.3263 43.4154 29.6996 43.4744 30.1025C43.5041 30.3081 43.5254 30.5148 43.5382 30.7222C43.5454 30.8292 43.5478 30.9276 43.551 31.0415L43.557 31.3976C43.5721 32.337 43.5772 33.1738 43.5206 33.4921C43.5402 34.2013 43.4369 32.0515 43.431 34.4523C43.3884 36.0599 43.4901 36.5834 43.5241 36.7514C43.5686 36.7774 43.5849 34.2283 43.6385 35.1129C43.6329 33.8618 43.5756 33.3635 43.6185 31.7634C43.6239 33.0034 43.7139 34.6876 43.645 35.3482C43.7278 37.8004 43.9361 37.4485 43.9475 36.2923C43.8822 36.5676 43.8671 31.8193 43.7821 35.0348C43.7401 34.3125 43.7189 33.2918 43.7016 32.2154L43.6892 31.4014L43.6828 30.995C43.6801 30.8743 43.6747 30.7546 43.667 30.636C43.6344 30.1617 43.5511 29.708 43.4374 29.3072L43.4718 29.3769C43.4718 29.3769 43.3519 28.871 43.149 28.3936C42.9545 27.9131 42.6849 27.4698 42.6849 27.4698C42.7689 27.5896 42.8883 27.7861 42.9849 27.9574C43.0815 28.1287 43.1591 28.2728 43.1831 28.2742C43.1831 28.2742 43.1082 28.1089 42.9785 27.8704C42.6615 27.29 42.2647 26.757 41.7997 26.2868C41.6106 26.0958 41.4749 25.9792 41.475 25.9792C41.776 26.2465 41.8721 26.3494 41.861 26.319C41.8488 26.2903 41.7203 26.1376 41.5276 25.9438C41.3356 25.7493 41.0739 25.5202 40.8149 25.3235C40.5981 25.1605 40.3746 25.0065 40.145 24.8621C39.8457 24.75 38.8166 24.3494 39.7619 24.8313C40.2759 25.1318 40.4145 25.2346 40.5574 25.3089C40.6951 25.39 40.8374 25.4466 41.2505 25.803C41.2505 25.803 40.9451 25.564 40.6169 25.3648C40.2895 25.1631 39.9438 25.0032 39.9438 25.003L39.8345 24.9314C39.8345 24.9314 39.6227 24.8418 39.406 24.7697C39.19 24.6951 38.9704 24.6385 38.9704 24.6385C38.4907 24.464 38.2962 24.4143 38.2495 24.3819C38.2018 24.3523 38.2991 24.3508 38.3782 24.3525C38.4571 24.3535 38.5188 24.3526 38.3975 24.3132C38.2761 24.2786 37.9717 24.1847 37.306 24.1329L37.4708 24.2115L37.6321 24.2942C37.4416 24.2644 37.2499 24.2424 37.0576 24.2282C36.9591 24.2207 36.8605 24.2152 36.7618 24.2119L36.436 24.2062L35 24.1873L32.0953 24.142C30.1921 24.1131 28.4195 24.0933 27.1612 24.1208C27.8556 24.053 28.1615 23.9436 27.2069 23.879C28.2922 23.8996 30.4726 23.8952 32.029 23.884C32.3285 23.905 30.0846 24.0253 28.3938 23.9996C29.213 24.1951 32.6466 23.8815 32.8453 24.0797C34.9993 24.1143 35.8026 24.0666 36.5247 24.0248L36.7722 24.0115C36.8534 24.0085 36.9347 24.0073 37.016 24.0078C37.1836 24.0081 37.3642 24.0189 37.5738 24.0434C37.9905 24.0971 38.5344 24.2003 39.2684 24.529C39.3059 24.4956 39.5224 24.5742 39.7468 24.6755C39.972 24.7754 40.2018 24.9017 40.2957 24.9126C40.1078 24.7571 39.7695 24.5441 39.3163 24.3518C38.8643 24.158 38.2967 23.9905 37.6793 23.9052C37.364 23.8617 37.0462 23.8394 36.7279 23.8385L35.6692 23.8465C34.9619 23.8512 34.2791 23.8511 33.6858 23.8385C33.9181 23.8321 34.3857 23.8188 34.4771 23.802C32.7808 23.7762 32.08 23.7958 30.8952 23.8286L31.0445 23.8391C28.9741 23.9257 29.7634 23.773 28.5448 23.7342C28.0726 23.7473 26.3783 23.7217 26.6508 23.7867L24.444 23.7028L24.5505 23.8015C23.3058 23.8072 23.0334 23.7421 21.9053 23.8022L21.8529 23.8905L24.944 23.9213C23.3776 23.9502 24.5073 24.0059 22.7858 24.0246C24.7089 23.9278 21.4254 23.9755 21.236 23.8934L19.9698 23.9431L20.2937 23.9196C19.3 23.8741 19.1105 23.9525 17.9508 23.9409C19.3188 23.9901 20.2145 24.0525 21.9574 23.9896C20.6884 24.0394 18.172 24.0945 17.5543 24.0975C16.2219 24.1346 15.2917 24.0671 14.0451 24.0572C16.4374 24.0217 13.2072 23.7889 18.0012 23.8526C17.9127 23.8695 17.5244 23.8657 17.3744 23.8553C18.0135 23.9683 20.248 23.8482 21.2875 23.805C21.0198 23.7399 22.1067 23.7238 20.2639 23.6878C20.8686 23.7295 18.7114 23.8329 16.9581 23.7795L17.2669 23.6403L14.7141 23.6238L14.9531 23.6173C14.473 23.5724 13.7921 23.5768 13.0114 23.5857L12.4089 23.5926C12.2019 23.5941 11.9965 23.5979 11.7674 23.5946C11.3097 23.5878 10.8531 23.5468 10.4015 23.472C10.0701 23.4394 9.50537 23.3499 8.89345 23.1839C8.28071 23.0215 7.62512 22.7779 7.09165 22.5337C6.55668 22.2917 6.1423 22.0552 5.96896 21.9708C5.79813 21.8825 5.85725 21.9616 6.32353 22.2685C5.61252 21.8217 4.96887 21.3729 4.34671 20.8604C3.72741 20.3467 3.12894 19.7672 2.57145 19.0362C2.57145 19.0362 2.89966 19.5064 3.27742 19.9392C3.65031 20.3761 4.06922 20.7717 4.06922 20.7717C3.6897 20.452 3.33176 20.1075 2.99775 19.7405C2.76579 19.4854 2.62284 19.3097 2.49015 19.1474C2.34694 18.9714 2.20645 18.7932 2.06872 18.6128C1.82616 18.2958 1.59859 17.9676 1.38676 17.6293C1.31403 17.4137 1.13011 16.9593 1.36224 17.3425C0.91822 16.4505 0.589172 15.5059 0.382987 14.5312C0.16513 13.5092 0.0856776 12.4349 0.138252 11.416C0.187805 10.3954 0.369545 9.43112 0.605713 8.60925C0.840698 7.78604 1.12541 7.10459 1.34729 6.60841C1.59536 6.12495 1.88371 5.66325 2.20931 5.22821C2.48645 4.85901 2.75403 4.54894 3.05604 4.22846C3.3998 3.8651 3.76102 3.51868 4.13843 3.19041C4.58304 2.8061 5.13314 2.36216 5.90143 1.87841C6.22561 1.67533 6.082 1.72404 6.1176 1.67365C6.13591 1.64913 6.19924 1.59908 6.39442 1.48872C6.59027 1.38004 6.91714 1.20636 7.48101 0.983806C7.55743 0.955755 7.02968 1.20502 6.80426 1.34662C6.69038 1.41532 6.64772 1.44925 6.7826 1.39046C6.91865 1.33452 7.22872 1.17697 7.8539 0.936775C8.72734 0.550279 9.83744 0.283881 11.0278 0.206279C11.3292 0.186044 11.6312 0.176911 11.9332 0.1789L12.795 0.184779C13.3703 0.185619 13.9513 0.178564 14.5271 0.155384C15.7429 0.194017 17.8526 0.179405 17.4132 0.264229C15.4872 0.244912 12.7619 0.262548 12.3467 0.303196C12.4777 0.277833 12.1411 0.264733 11.9349 0.254654C11.8289 0.249447 11.7612 0.246424 11.8149 0.239033C11.8418 0.23517 11.8993 0.23181 11.9975 0.227275L12.3961 0.214173L11.887 0.204935C11.7226 0.204095 11.5726 0.205943 11.4352 0.211318C11.1602 0.220892 10.9358 0.240208 10.7462 0.260365C10.367 0.302357 10.1269 0.349388 9.89808 0.397427C9.66964 0.447482 9.45179 0.49888 9.12257 0.585048C8.79419 0.673232 8.35159 0.790474 7.69382 1.0342C7.61051 1.08677 7.95199 0.969361 8.39241 0.843888C8.83215 0.715056 9.37351 0.590759 9.6641 0.519037C9.67317 0.547759 9.34042 0.627545 8.88707 0.766119C8.43289 0.902341 7.86112 1.10861 7.37922 1.32848C6.89614 1.54566 6.50276 1.77074 6.36553 1.86531C6.22947 1.96374 6.33932 1.9115 6.89917 1.66761C7.46002 1.3934 8.03724 1.15404 8.62756 0.950884C9.13382 0.777037 9.58314 0.649717 10.0276 0.551119C10.4796 0.44942 10.9389 0.383428 11.4012 0.353755C11.5268 0.346159 11.6525 0.341455 11.7783 0.339646C11.9082 0.338095 12.038 0.338823 12.1678 0.34183C12.4274 0.346869 12.7048 0.356443 13.0072 0.371728C12.7648 0.389365 12.4883 0.398771 12.1907 0.404986L11.715 0.415904C11.5485 0.422119 11.3782 0.431524 11.2061 0.445466C10.5179 0.499552 9.79965 0.63208 9.18824 0.850271C9.18824 0.850271 9.69635 0.731853 10.2125 0.665674C10.7278 0.594287 11.2467 0.57497 11.2467 0.574803C11.2467 0.574803 11.6211 0.528442 11.9987 0.508622L12.72 0.466799L12.6341 0.483931C16.1442 0.58992 15.8811 0.364674 19.0216 0.306557C17.2022 0.2261 19.4426 0.105834 18.0736 0.0566194C20.1739 0.0418382 21.7164 0.0572915 21.7303 0.173022C17.8012 0.267588 21.5074 0.295471 17.8749 0.411034C18.4712 0.452522 17.01 0.580514 19.1747 0.59328C21.6137 0.510639 18.445 0.496865 20.8775 0.458568C21.0211 0.468982 21.1705 0.479396 21.0856 0.496361C22.2043 0.436228 22.3909 0.518029 23.7447 0.451514L23.4238 0.474694C25.093 0.544905 25.2498 0.395077 26.6867 0.471671C26.1119 0.385671 27.6515 0.401123 28.5426 0.347541C27.0862 0.315123 26.2977 0.191667 23.4238 0.198553C23.0767 0.266581 23.2867 0.304205 22.1064 0.337127L23.9742 0.328896L22.8947 0.371225L21.1004 0.335951C23.3752 0.287408 22.332 0.214678 23.2986 0.143963C25.3804 0.173693 25.0164 0.125319 26.3256 0.147491C26.1941 0.247264 30.3394 0.317979 32.7366 0.381975L31.6243 0.378112C29.8833 0.441101 32.8225 0.461256 32.8868 0.488635L34.1558 0.438748C33.9169 0.445635 33.5865 0.468984 34.1277 0.483093C35.8456 0.464616 35.7456 0.365682 37.4606 0.34687C37.5894 0.401795 36.1393 0.485108 37.2058 0.513999C37.5735 0.56187 38.7444 0.689358 41.0229 0.640815C41.1843 0.619819 41.775 0.608061 42.4598 0.598991C42.3648 0.602014 42.2453 0.60403 42.2023 0.608061L43.7157 0.667859C42.4262 0.761585 41.1078 0.623682 39.8118 0.717745L39.7016 0.806768C38.693 0.807104 37.3233 0.845569 36.6935 0.891761C38.231 0.906878 38.5549 0.88353 40.2744 0.865053C40.5153 0.921323 39.304 0.963147 39.1297 0.969194L39.3862 0.918467C37.3354 0.844729 36.3202 1.0038 33.7673 0.987335C33.382 0.983808 33.6169 0.977088 33.7029 0.960292C31.6363 1.04663 29.6087 0.928377 27.6 1.04209L28.2549 0.995229L21.5405 1.20553L21.5192 1.24029C21.8158 1.26112 20.8129 1.25995 20.2745 1.24584L20.2774 1.24533L16.5965 1.35586C16.9333 1.37719 17.3643 1.39516 17.859 1.4002C18.2779 1.35955 20.7336 1.39281 20.3968 1.30043C21.5314 1.35619 23.3593 1.27607 24.1924 1.31118C22.6745 1.25172 25.2496 1.22383 25.5155 1.17294C26.0259 1.23139 27.7653 1.16857 27.5664 1.24701C27.8659 1.26751 26.8209 1.19494 26.1753 1.24198C24.5853 1.31521 29.0863 1.30631 27.1055 1.37585C29.6247 1.32075 32.9446 1.3446 35.543 1.27238L34.0884 1.2403C35.2436 1.25172 37.9774 1.23425 38.1817 1.27221L35.2221 1.29623C35.169 1.38475 37.8607 1.29573 37.983 1.35031L41.1722 1.20368L39.7754 1.19881C40.6552 1.14506 43.5756 1.20989 45.7404 1.22249C44.4985 1.34376 42.4748 1.22568 40.1971 1.27423C38.5428 1.32025 41.2189 1.3913 39.6532 1.42036C40.0592 1.44858 41.0808 1.44522 41.5847 1.41482L42.2023 1.43682C40.8057 1.54701 37.6742 1.52248 35.5897 1.61722C35.7727 1.60546 35.9322 1.59286 35.99 1.5801C34.3851 1.53743 32.7551 1.53911 31.1903 1.56834C32.0181 1.60311 32.3454 1.57942 32.8184 1.56666C32.8772 1.59387 31.4003 1.60563 30.8413 1.63586C32.2967 1.66794 31.1127 1.70087 32.0337 1.71901C31.0857 1.74521 30.3179 1.73765 29.1628 1.72606C28.5638 1.6844 29.6581 1.66862 29.536 1.61419C28.3463 1.64695 27.8024 1.51644 26.0612 1.57942C28.377 1.60244 25.451 1.69818 24.6531 1.7348L25.0415 1.73866C24.3071 1.80265 23.6838 1.80517 23.1763 1.74672C24.1244 1.72052 25.0415 1.73866 24.7719 1.67349C24.1457 1.67634 23.5217 1.67903 22.8125 1.69868L23.4572 1.65165L20.3456 1.66526C19.8527 1.7227 19.0299 1.80366 18.5989 1.88832C17.8526 1.83625 16.813 1.87958 16.1049 1.89957L16.4342 1.87555C15.7479 1.85103 14.6413 1.84901 13.674 1.85943C13.1904 1.86463 12.7416 1.87303 12.3976 1.88328C12.2266 1.88849 12.0778 1.89386 11.9711 1.90008C11.869 1.90629 11.7993 1.91402 11.7698 1.92107C11.6569 1.91822 11.6715 1.90847 11.7718 1.8942C11.8414 1.88496 11.9113 1.87762 11.9814 1.87219L12.3113 1.84952L13.9819 1.74555C14.4762 1.71094 14.7848 1.6792 14.5367 1.65904C14.4126 1.64896 14.149 1.64174 13.7002 1.63855L12.8819 1.63687L12.3575 1.63855C12.1688 1.63989 11.9639 1.63888 11.7639 1.64476C11.141 1.66038 10.7366 1.72623 10.4586 1.7825C10.1808 1.84061 10.0286 1.8947 9.91 1.94257C9.67501 2.04554 9.56617 2.10853 8.91008 2.33881C8.91008 2.33881 8.97996 2.29917 8.84491 2.33108C8.33563 2.49351 8.0699 2.62452 7.83055 2.74899C7.5927 2.87698 7.37973 3.00094 7.00633 3.22652C7.31773 3.06402 7.63453 2.91209 7.95619 2.77099C8.27365 2.63192 8.55785 2.52374 8.69441 2.46428C8.5545 2.54726 8.0353 2.73152 7.48689 3.00514C6.93612 3.27288 6.36469 3.63805 6.05579 3.90142C6.4564 3.55642 6.02338 3.83071 5.59875 4.17169C5.17345 4.51098 4.771 4.92217 5.04815 4.6163C4.24744 5.31505 3.57087 6.20562 3.11768 7.06461C2.65846 7.92327 2.41524 8.73808 2.30287 9.27743C2.04739 9.94595 1.93888 10.5743 1.89722 11.3119C1.86296 12.0504 1.88311 12.9061 2.07796 14.0503C2.00691 13.7012 1.89487 13.0606 1.88798 12.5594C1.82701 11.8974 1.81962 12.5011 1.85926 13.0166C1.87791 13.2739 1.90847 13.5076 1.90663 13.5512C1.90747 13.5944 1.86228 13.4498 1.79442 12.9381C1.85355 13.3754 1.83188 12.9659 1.79745 12.5164C1.74655 11.7279 1.79526 10.9805 1.73799 11.1761C1.73799 11.1761 1.67735 11.6547 1.6661 12.1391C1.64997 12.623 1.6839 13.1078 1.68373 13.1078C1.68373 13.1078 1.66122 12.9398 1.64476 12.7712C1.6273 12.6025 1.61621 12.4331 1.61621 12.4331C1.61621 12.4331 1.61268 13.1731 1.72589 13.907C1.77539 14.2436 1.84125 14.5777 1.92326 14.9079C1.99111 15.1783 2.0457 15.3566 2.0457 15.3566C2.08702 15.4278 2.01782 15.157 1.98843 15.0173C2.23172 15.8683 2.58731 16.6832 3.04579 17.4404C3.51388 18.2133 4.08136 18.9216 4.73371 19.5469C6.02606 20.7964 7.60329 21.6288 9.0448 22.0533C9.19731 22.0353 9.71566 22.1579 10.4623 22.2473C10.8353 22.2918 11.2653 22.3263 11.7315 22.3321L13.2952 22.3217C15.495 22.3078 17.9406 22.3054 19.2232 22.2334C18.5354 22.3007 18.1594 22.4195 18.5849 22.4684C18.013 22.4783 16.8419 22.573 15.545 22.5533C15.3379 22.5156 13.7358 22.4729 14.7668 22.4299C11.182 22.4566 15.2521 22.5329 14.1939 22.6202C18.1658 22.5974 20.4957 22.46 23.0028 22.4047L23.0663 22.4324L24.9595 22.3798C23.4125 22.3642 23.4889 22.2312 25.4829 22.2779L25.2403 22.2844C26.3777 22.3404 28.7438 22.2745 30.5206 22.2833L31.7251 22.2063C33.5046 22.2151 33.581 22.3583 34.1595 22.4442C34.7911 22.4466 35.4228 22.4421 36.0543 22.4306C36.3438 22.4265 36.607 22.4151 36.9022 22.4165C37.1883 22.4183 37.4649 22.4329 37.734 22.4586C38.8089 22.5673 39.7725 22.8285 40.7472 23.309C40.956 23.4387 41.3578 23.6841 41.774 24.008C42.1924 24.3289 42.6206 24.7301 42.938 25.0877C43.2585 25.4431 43.4705 25.75 43.5227 25.838C43.5699 25.9309 43.4713 25.7943 43.0694 25.3541C43.5246 25.8556 43.811 26.2379 44.0523 26.5663C44.2912 26.8967 44.4813 27.1784 44.6721 27.5321C44.8603 27.8864 45.0533 28.315 45.2159 28.9602C45.2965 29.2827 45.3635 29.6601 45.4021 30.1066C45.4212 30.3469 45.4296 30.5879 45.4273 30.829L45.4235 31.0242L45.4166 31.2094L45.4006 31.6L45.3704 31.0401C45.3634 30.9006 45.3535 30.7613 45.3408 30.6222C45.3311 30.5073 45.321 30.4313 45.321 30.4313C45.3415 30.7101 45.3432 31.0141 45.3438 31.2731L45.3496 32.0985L45.3654 33.8141L45.4033 37.2688C45.427 39.4927 45.4411 41.4386 45.4094 42.3888C45.301 41.628 45.2461 42.916 45.1915 44.4859L45.1037 46.8549C45.0701 47.8286 45.0301 48.5326 44.977 48.7084C45.0012 48.6014 45.0175 49.056 45.0308 49.5958C45.0442 50.1338 45.0546 50.7528 45.0675 50.935L45.0523 51.2359C44.716 50.8756 44.2993 50.4484 43.8634 50.0613C44.5688 50.7941 44.4499 50.7422 44.3591 50.7046C44.2687 50.6676 44.2326 50.6715 45.214 51.6266L45.1969 50.5877L45.2562 51.7282C44.5458 51.0996 43.6435 50.2677 42.4793 49.152L40.9542 47.6827C40.4733 47.2148 39.9963 46.743 39.5232 46.2673L39.6222 46.2411L41.5105 48.1676C41.4739 48.1079 41.5074 48.1247 41.5852 48.1894L41.6514 48.2465L41.6899 48.281L41.7532 48.3406L42.0471 48.6216C42.4721 49.0314 43.0044 49.555 43.3097 49.8389L41.7962 48.2924L41.62 48.1064L41.494 47.9699C41.4196 47.8884 41.3638 47.8253 41.3227 47.7765C41.1584 47.5819 41.2311 47.6203 41.2998 47.658C41.4372 47.7329 41.5593 47.8034 39.7418 45.9939C39.3507 45.684 39.5946 45.8943 38.6357 44.9676C39.0811 45.4089 39.2041 45.4456 38.4904 44.7303L37.7542 44.094C36.5918 42.7229 39.9188 46.1229 38.9115 44.9688L41.3596 47.2847C41.5298 47.4431 41.7001 47.6014 41.8704 47.7596C42.036 47.9092 42.1766 48.0359 42.2833 48.132C42.5129 48.3327 42.5944 48.3809 42.4807 48.2272L42.0439 47.7844L41.6937 47.4364C41.5007 47.2466 41.3051 47.0594 41.1072 46.8747C40.7575 46.5492 40.4786 46.3073 40.1966 46.0618C39.6326 45.5708 39.0564 45.0659 37.879 43.852L37.6584 43.5632C36.7941 42.745 36.6031 42.6642 36.1093 42.2369C36.0871 42.1761 35.8879 41.9477 35.3531 41.4018C33.8521 40.0616 32.8935 39.1347 31.4955 37.9122C35.0487 41.3339 34.4158 40.9548 38.074 44.4959C37.4839 43.9578 34.9308 41.4426 34.6886 41.3734L34.785 41.3442C33.582 40.2065 32.3802 39.0689 30.9308 37.5782L31.8634 38.4402C31.4031 37.9992 30.9507 37.5502 30.5063 37.0932L29.907 36.4727L29.642 36.1953C29.6313 36.1812 29.6173 36.1701 29.6011 36.163C29.5828 36.1551 29.5628 36.1521 29.5429 36.1543C29.5231 36.1565 29.5042 36.1638 29.488 36.1754C29.4718 36.1871 29.459 36.2028 29.4506 36.2209C29.4423 36.2391 29.4389 36.259 29.4406 36.2789C29.4421 36.2989 29.4493 36.3181 29.4612 36.3342C29.4638 36.3382 29.4673 36.3416 29.4705 36.3451L29.4755 36.35C29.4763 36.349 29.4639 36.3364 29.4735 36.3464L29.6032 36.4689C29.7986 36.6519 29.9973 36.8315 30.199 37.0076L29.5143 36.3164C29.5066 36.3075 29.5007 36.2973 29.497 36.2861L29.494 36.2767C29.4942 36.2792 29.4933 36.2645 29.493 36.2809L29.4931 36.2571C29.491 36.2705 29.4913 36.2499 29.491 36.2482C29.4906 36.2659 29.4954 36.2834 29.5049 36.2984C29.5071 36.3026 29.5183 36.3152 29.5158 36.31L29.6818 36.4721L30.5369 37.3173C31.1142 37.8934 31.6974 38.4852 32.2376 39.0358L34.5989 41.1903C34.5477 41.2012 35.9762 42.6337 35.236 41.9925C36.8129 43.665 37.6732 44.3387 38.6281 45.2626C40.2247 46.9925 37.1564 43.8501 36.9058 43.7725C39.1688 46.0938 41.625 48.4978 42.9762 49.7364C42.5215 49.2565 42.3055 49.0187 42.3448 49.0276C42.394 49.1161 43.323 50.0351 43.8375 50.5507L44.2331 50.865C45.0627 51.7498 44.9174 51.6523 44.1563 50.9525C44.3964 51.1952 44.6407 51.4336 44.8892 51.6677L45.2777 52.0352L45.3756 52.1279L45.4243 52.1743L45.4485 52.1977L45.4606 52.2092L45.4666 52.2151L45.4681 52.2166C45.9282 51.8143 44.8384 52.7703 44.9674 52.6466L45.0035 52.5925L45.0753 52.4839L45.3242 52.0967L45.3682 52.1219L45.3956 52.1375L45.4057 52.1432L45.4131 52.1473C45.4167 52.1415 45.4169 52.1414 45.3768 52.2087L45.2901 52.3547L45.2033 52.5005C45.1493 52.5704 45.1915 52.5146 45.1809 52.5279L45.2026 52.4908L45.2451 52.4165L45.3959 52.1367L45.3988 52.1377L45.4127 52.1436C45.4226 52.1489 45.4393 52.1521 45.4398 52.157L45.3853 52.1338C45.4189 52.1446 45.4408 52.1511 45.445 52.1515L45.4451 52.1516L45.4278 52.2138C45.4157 52.2591 45.403 52.2862 45.3916 52.3236C45.3684 52.3933 45.3482 52.464 45.3313 52.5354L45.3042 52.7101L45.3008 52.732C45.2987 52.7345 45.3032 52.742 45.2956 52.7402L45.298 52.7298L45.3066 52.6885L45.3208 52.6055C45.3429 52.471 45.3618 52.336 45.3774 52.2007L45.3837 52.1459C45.3853 52.1303 45.3837 52.1417 45.3845 52.138L45.3855 52.138L45.3884 52.1382C45.4102 52.1397 45.4801 52.1419 45.5022 52.1414L45.4408 52.6542L45.3879 52.3948L45.3365 52.1582L45.339 52.1575L45.3504 52.1546L45.3805 52.1469L45.4366 52.1318C45.449 52.1605 45.4015 52.0055 45.5273 52.4244L45.5837 52.6085L45.6126 52.6967L45.62 52.7187C45.6638 52.8517 45.254 51.6093 45.4275 52.1347L45.4278 52.1345L45.4293 52.134L45.4403 52.1305L45.4708 52.1202L45.4787 52.1175L45.4784 52.1175L45.4782 52.1177L45.4784 52.1185L45.4829 52.1315L45.5199 52.2354L45.5963 52.4422L45.6559 52.6036L45.686 52.6792L45.7015 52.717L45.7093 52.7357L45.7134 52.7451C45.0025 51.6059 45.5169 52.4289 45.3585 52.1746L45.3821 52.1614C45.4203 52.142 45.4551 52.1167 45.4853 52.0863L45.7045 51.8814L45.9322 51.6778L45.5164 52.1177C45.4865 52.1526 45.452 52.1856 45.4104 52.2077L45.3874 52.2215L45.3857 52.2225C45.3145 52.1101 46.0063 53.2122 45.7114 52.7409L45.7073 52.7313L45.6917 52.6937L45.6613 52.6179L45.6034 52.4615L45.5264 52.2544L45.4962 52.1698L45.4965 52.1698L45.4883 52.173L45.4576 52.1837L45.4468 52.1874L45.4453 52.1879L45.4446 52.1881C45.5227 52.4251 45.2693 51.6576 45.6197 52.7197L45.616 52.7088L45.5867 52.6206L45.531 52.4389L45.465 52.2208C45.4493 52.1681 45.4561 52.1899 45.4547 52.1852L45.4545 52.1852L45.4512 52.1864L45.3936 52.2027L45.363 52.2108L45.3509 52.2139L45.3479 52.2148C45.3491 52.2215 45.3423 52.1909 45.358 52.2642L45.3867 52.394L45.4398 52.654L45.5012 52.1993C45.4762 52.2002 45.4067 52.1978 45.3818 52.1958C45.3791 52.1976 45.3768 52.1911 45.3766 52.2C45.3581 52.3505 45.341 52.4832 45.32 52.605L45.3057 52.688L45.2972 52.7293L45.295 52.7397C45.3022 52.7434 45.298 52.7345 45.3 52.7325L45.3034 52.7106L45.3304 52.5359C45.3474 52.4645 45.3674 52.3938 45.3905 52.3241C45.402 52.2867 45.4149 52.2595 45.4268 52.2144C45.4309 52.1988 45.4273 52.2101 45.4282 52.2064L45.3665 52.1871L45.4181 52.2065L45.3875 52.1953L45.3729 52.1884L45.3721 52.1879L45.3702 52.1909L45.3585 52.2129L45.3124 52.2986L45.2231 52.4615L45.1997 52.5018L45.188 52.5218C45.2039 52.4997 45.1354 52.5996 45.2207 52.4772L45.3872 52.197L45.3862 52.1963L45.3842 52.1951L45.3284 52.1617L45.3014 52.1452L45.2958 52.1419L45.298 52.1432L45.0447 52.5354L44.9668 52.6532C45.898 51.8582 45.2244 52.4323 45.432 52.2546L45.4305 52.2529L45.4272 52.2497L45.4208 52.2432L45.214 52.0374L44.8058 51.6302L44.0376 50.8603C43.5546 50.3765 43.1413 49.9657 42.8609 49.7079C43.3993 50.2299 43.93 50.7599 44.4528 51.2975L45.0474 51.919L45.3197 52.2087L45.3857 52.2801L45.3939 52.289L45.3949 52.2902L45.3954 52.2909C45.4839 52.2195 44.5777 52.9863 44.9883 52.6214L45.1939 52.3073L45.2446 52.2284C45.2538 52.215 45.2625 52.2013 45.2706 52.1872L45.2699 52.1867L45.2684 52.1861L45.2835 52.1965L45.321 52.2213L45.3563 52.2448L45.3576 52.2457L45.3583 52.246L45.2463 52.4345C45.1912 52.5292 45.1603 52.5595 45.1826 52.5312L45.1905 52.518L45.2059 52.4914L45.2664 52.3844C45.3007 52.3218 45.361 52.2059 45.345 52.2393C45.3469 52.2409 45.349 52.2422 45.3512 52.2433L45.3964 52.2679L45.3492 52.2501L45.412 52.2744L45.4132 52.2751L45.4124 52.2749C45.412 52.2753 45.412 52.2739 45.4112 52.2756L45.4067 52.2885L45.3978 52.3146C45.3744 52.3843 45.3539 52.4548 45.336 52.5262L45.3081 52.7017C45.3042 52.7157 45.3076 52.7316 45.2975 52.7442L45.3062 52.7032L45.321 52.6206L45.3499 52.432L45.3714 52.269C45.3707 52.2694 45.3749 52.27 45.3774 52.2705C45.4053 52.2758 45.4744 52.2811 45.5041 52.2835L45.4426 52.6574C45.4196 52.5381 45.3947 52.4192 45.3684 52.3006C45.3669 52.2946 45.369 52.2988 45.3692 52.2974L45.3763 52.2962L45.3968 52.2924L45.4421 52.283L45.4806 52.2746L45.4826 52.2742L45.4826 52.2744L45.4888 52.2954L45.5353 52.4479C45.5617 52.5368 45.5859 52.6157 45.6141 52.6992C45.551 52.5074 45.7702 53.1719 45.4752 52.2771L45.4762 52.2768L45.4782 52.2761L45.4823 52.2749L45.5076 52.2675L45.5264 52.2623C45.5284 52.2616 45.5313 52.261 45.5301 52.2615L45.6254 52.5195C45.6516 52.592 45.6796 52.6638 45.7097 52.7348C45.9652 53.1403 45.3754 52.2148 45.4361 52.307L45.4382 52.3058L45.4428 52.3033L45.4465 52.3011L45.4498 52.2996L45.4564 52.2964L45.4697 52.29C45.4875 52.2816 45.5054 52.2732 45.5221 52.2622C45.5388 52.2509 45.5549 52.2388 45.5703 52.2259L45.6264 52.175L45.8032 52.008L46.59 51.2527C47.167 50.6908 47.8649 49.9942 48.7808 49.0523C48.8458 49.0262 48.2563 49.6916 48.9706 48.9782C50.6097 47.3093 49.319 48.4624 49.7903 47.9005C48.5423 49.1991 47.925 49.7666 47.1346 50.4543L47.4413 50.0814C47.51 50.0471 48.3105 49.2485 48.5626 49.0294L48.7012 48.7561C48.6807 48.9258 50.0167 47.7031 50.9943 46.6698C49.9242 47.6319 50.2015 47.3602 49.8402 47.5518C51.1735 46.0576 51.5145 46.0355 53.0141 44.3654C52.9194 44.5082 51.5537 45.9096 52.7674 44.7324C53.7604 43.7461 53.5703 43.8199 54.2156 43.1377C53.5301 43.9472 53.7682 43.8014 53.0318 44.6852C51.2814 46.4514 52.3216 45.3937 50.6302 47.1394L52.1375 45.7371C50.6579 47.237 51.1252 46.8915 51.0262 47.038C53.6334 44.5569 52.8492 45.0262 54.5023 43.4058C55.2488 42.5742 52.9601 44.9301 54.1499 43.6512C55.6897 42.1294 54.4583 43.2617 56.1494 41.5165L55.8904 41.8328C56.4525 41.3445 56.9263 40.7798 57.5276 40.1659C58.1772 39.4787 56.5551 40.7069 59.2989 37.9547C59.1816 38.1066 59.1432 38.1672 59.1504 38.1744L56.9913 41.3764L61.4452 36.9434L61.5918 36.7984C61.6378 36.7522 61.698 36.6953 61.7245 36.6646C61.8238 36.5502 61.8764 36.4026 61.8719 36.2512C61.8673 36.0998 61.806 35.9556 61.7 35.8474C61.5663 35.706 61.3464 35.6332 61.1457 35.6759C61.0455 35.6957 60.9519 35.7402 60.8734 35.8054C60.8324 35.8397 60.7832 35.8919 60.7318 35.9415L60.5811 36.0898L58.15 38.4763C57.2886 39.1337 60.367 36.091 60.1238 36.2423L60.3569 36.0157L60.5957 35.7834C60.6831 35.6971 60.7731 35.6055 60.8883 35.5499C61.1161 35.4303 61.3886 35.4456 61.5599 35.5195C61.6569 35.5581 61.7453 35.6154 61.8201 35.6882C61.8046 35.6846 61.747 35.6344 61.6432 35.5832C61.5082 35.5167 61.3573 35.4891 61.2075 35.5036C61.0126 35.5229 60.832 35.6146 60.7014 35.7606L60.2423 36.23C59.6558 36.8315 59.2498 37.2609 59.9521 36.6348L60.418 36.159L60.6404 35.9329C60.7123 35.862 60.7898 35.7757 60.847 35.731C61.1086 35.5184 61.4945 35.5459 61.719 35.7459C61.9541 35.9398 62.0226 36.2747 61.915 36.5337C61.889 36.5983 61.8535 36.6586 61.8098 36.7128C61.7697 36.7615 61.7038 36.8228 61.6467 36.8814L61.2984 37.2311C60.3739 38.1608 59.4732 39.0813 58.2858 40.3575C58.7197 40.026 59.5263 39.2103 60.4347 38.287L61.8397 36.8685C62.0804 36.6436 62.1582 36.2806 62.0517 35.9856C61.9511 35.6868 61.6808 35.4725 61.3943 35.4203C61.5108 35.4385 61.6224 35.4801 61.7224 35.5425C61.8224 35.6049 61.9088 35.6868 61.9765 35.7834C62.1039 35.9664 62.1567 36.1912 62.1241 36.4118C62.0964 36.6254 61.9759 36.8184 61.8285 36.9545L61.4205 37.3828L61.7064 37.1018C61.8004 37.0044 61.9014 36.9226 61.9932 36.8053C62.1686 36.5744 62.2212 36.2519 62.1222 35.9712C62.0726 35.8288 61.9883 35.7009 61.877 35.5991C61.7656 35.4973 61.6308 35.4248 61.4845 35.388C61.1902 35.3117 60.8536 35.3974 60.6307 35.6146L58.115 38.0847L57.7551 38.4941L59.834 36.4628C58.2951 37.984 57.0612 39.3309 57.0343 39.5073L57.3088 39.238L56.7792 39.8143C56.4155 40.1697 56.0519 40.5238 55.6901 40.876ZM50.9364 2.59228C50.8049 2.60252 50.7012 2.61428 50.6248 2.62906C50.7041 2.61361 50.6154 2.6037 50.9364 2.59228ZM38.4519 46.6362L44.4684 52.7336C41.0816 49.0516 38.7064 46.4524 44.6105 52.3628L44.8094 52.5509L44.9458 52.6804L44.959 52.693L44.9652 52.6989L44.9659 52.6997L44.9466 52.6834L44.9468 52.6836L44.9471 52.6837L44.9484 52.6846L44.951 52.6861L44.9728 52.6989L44.993 52.7103L44.9515 52.6832L44.9495 52.6819L44.9484 52.6812L44.9679 52.6975L44.9674 52.697L44.9629 52.6923L44.9538 52.6826L44.9357 52.6634L44.8603 52.5845L44.6999 52.4184L44.3451 52.0545L43.5263 51.2256C42.9082 50.6048 42.2868 49.9873 41.662 49.3733L38.9982 46.9973L37.6961 45.8491L37.2936 45.5001C37.1985 45.4191 37.1465 45.3768 37.1488 45.3833C37.4658 45.7828 38.0345 46.2615 38.674 46.9263L38.4519 46.6362ZM37.2521 44.9416C36.112 43.7685 36.3422 44.0641 36.1329 43.9138L37.3596 45.1183C37.2133 44.957 37.148 44.8709 37.2521 44.9416ZM36.1724 44.012C36.3018 44.1427 36.4111 44.2549 36.4652 44.3167L36.1724 44.012ZM58.9078 39.8486L58.7908 39.9692L59.6303 39.1435C59.5147 39.2496 59.2999 39.457 58.9078 39.8486ZM56.4881 42.1239L56.2675 42.4523C56.5297 42.1942 56.792 41.9361 57.0543 41.6781C56.9421 41.7414 56.829 41.8118 56.4881 42.1239ZM48.7657 49.4917C48.3547 50.0322 46.7644 51.6284 46.7413 51.8007C46.659 51.9217 47.0014 51.5938 47.3837 51.2238L48.7325 49.8874C48.738 49.86 48.8223 49.7555 48.9703 49.5881C48.4918 50.0478 48.1598 50.3428 48.304 50.1068C49.6101 49.0009 49.3135 48.955 50.6428 47.6768C51.0051 47.2091 49.1398 49.0753 48.7657 49.4917ZM11.9575 1.09618C12.0093 1.10491 12.1897 1.12893 12.4425 1.15833L11.7958 1.18654C11.4756 1.20418 11.158 1.24281 11.158 1.24281C10.0212 1.32075 9.00163 1.52769 8.05495 1.8685C7.11063 2.21065 6.23636 2.6902 5.45262 3.36342C4.66854 3.92561 4.26122 4.25668 3.87657 4.5817C4.17181 4.26458 4.48766 3.9673 4.82206 3.6918C5.26957 3.27903 5.75362 2.90775 6.26827 2.58253C6.60763 2.36767 6.96131 2.1763 7.32681 2.00976C7.90916 1.75008 8.24896 1.66374 8.55198 1.59135C8.85667 1.52315 9.12777 1.47092 9.60867 1.37702C10.0902 1.29186 10.7826 1.14119 11.9575 1.09618ZM4.6939 20.4242C4.50813 20.27 4.43338 20.2221 4.43338 20.2221C5.37914 21.0349 6.45128 21.6878 7.60749 22.1551C8.63085 22.5677 9.70932 22.8277 10.8083 22.9266C11.3203 22.9746 11.8126 22.9783 12.2898 22.9676L13.6604 22.9528C14.4472 22.946 15.2339 22.9435 16.0207 22.9454C15.4819 22.8674 12.9712 22.811 11.7924 22.7749L12.8409 22.6894L13.4987 22.7583L15.3275 22.6786C14.8162 22.6197 13.3391 22.632 12.3519 22.5868C12.3341 22.5901 12.109 22.6026 11.8025 22.6113C11.4139 22.6198 11.0251 22.607 10.638 22.5727C10.2011 22.5335 9.76706 22.4681 9.33807 22.3768C9.01897 22.308 8.70257 22.2273 8.38955 22.1348C8.38955 22.1348 8.96333 22.3605 9.56248 22.5117C10.1596 22.6699 10.7745 22.751 10.7745 22.7512C10.4448 22.7047 9.46119 22.5673 8.45288 22.2124C7.95217 22.0399 7.46448 21.8318 6.99356 21.5895C6.61495 21.3943 6.24738 21.1784 5.89253 20.9427C5.86867 20.9533 6.31044 21.2971 6.83248 21.5899C7.3515 21.888 7.94661 22.1227 8.09611 22.1267C8.20949 22.2067 7.65839 22.013 7.28079 21.8443C7.09116 21.7624 6.943 21.693 6.93041 21.6989C6.91865 21.7031 7.03908 21.7891 7.40794 21.9814C6.90013 21.7657 6.4126 21.505 5.95115 21.2025C5.4415 20.8691 4.96273 20.4906 4.52056 20.0718C3.63234 19.239 2.97525 18.2832 2.621 17.6522L2.59177 17.386C2.22694 16.6879 2.10534 16.4515 1.95568 16.1841C1.86708 16.0209 1.78904 15.8521 1.72203 15.6789C1.63569 15.4533 1.53239 15.1473 1.43245 14.6865C1.58144 15.2464 1.68626 15.4913 1.72842 15.5825C1.7731 15.6733 1.76604 15.6082 1.75378 15.5299C1.74202 15.4515 1.7264 15.3592 1.74941 15.3949C1.77427 15.4298 1.82919 15.5956 1.99783 16.0182C1.91049 15.7402 1.93955 15.7266 1.9073 15.571C1.89252 15.4929 1.86228 15.3796 1.80635 15.1767C1.75143 14.9738 1.66744 14.682 1.57153 14.2407C1.3488 13.5175 1.3315 13.0297 1.33016 12.5642C1.33554 12.0958 1.3567 11.6439 1.36208 10.9291C1.43934 10.4584 1.43145 10.7164 1.43329 10.8575C1.43514 10.9282 1.439 10.9702 1.4563 10.8792C1.47512 10.7885 1.50065 10.5636 1.58816 10.1079C1.6671 9.58095 1.75697 9.19765 1.82533 8.91395C1.8947 8.63042 1.94409 8.44615 1.97096 8.32051C2.02673 8.06957 1.9928 8.05294 1.96844 7.97046C1.80559 8.35147 1.67436 8.74523 1.57606 9.14776C1.49695 9.47412 1.45462 9.74539 1.42187 10.0051C1.36258 10.5259 1.32445 10.9989 1.28917 11.8218C1.28917 11.8218 1.27977 11.6169 1.28329 11.3083C1.28808 10.9301 1.3127 10.5524 1.35704 10.1767C1.40185 9.79901 1.46661 9.42391 1.55104 9.05302C1.62075 8.74866 1.6792 8.54828 1.6792 8.54828C1.45883 9.12256 1.35368 9.56886 1.28666 9.9446C1.40507 9.28398 1.54734 8.72968 1.68172 8.25584C1.75313 8.00587 1.83472 7.75892 1.92628 7.51561C1.53038 8.3882 1.28347 9.26366 1.14691 9.95216C1.00934 10.6415 0.967681 11.1422 0.933753 11.291L0.903518 11.022C0.848426 11.3604 0.824573 11.8121 0.841705 12.2409C0.856487 12.6701 0.910911 13.0749 0.959453 13.3272C1.05939 14.1851 1.28985 15.0213 1.52904 15.6698C1.76604 16.3204 2.00069 16.7883 2.05377 16.9719L1.89118 16.6867C1.81123 16.5429 1.73647 16.3963 1.73647 16.3963C1.91047 16.7967 2.10807 17.1865 2.32823 17.5635C2.49722 17.853 2.67892 18.1348 2.87279 18.4082C3.3978 19.15 4.00912 19.8267 4.6939 20.4242ZM41.3892 46.5633C41.7195 47.012 42.0666 47.4482 42.4298 47.8708C42.886 48.4036 43.5775 49.1554 44.6476 50.2569C44.6558 49.7497 44.6612 49.1586 44.6636 48.4827L44.6606 46.2383L44.6735 46.7057C44.7912 43.7125 44.5178 40.8695 44.6486 37.2278C44.7193 38.995 44.713 38.8997 44.8747 40.8507L44.8216 38.9548C44.9238 39.4801 44.8708 37.5887 44.8757 36.1976L44.9972 37.4256C44.9622 38.2606 44.9496 40.4252 44.9773 40.3617C44.9639 39.8879 44.824 43.2197 44.8593 45.0299C44.9416 44.8433 44.9083 41.0215 45.0427 42.7281C44.9864 41.2239 45.0684 41.0375 45.0395 39.4651C45.0959 40.973 45.1517 39.8383 45.2117 40.9607L45.1836 38.3827C45.211 38.3155 45.2444 42.1373 45.3457 40.0248C45.3025 38.9919 45.3566 36.2339 45.2681 36.1843L45.2953 36.1209C45.3145 34.1885 45.1698 35.2708 45.2204 32.898C45.1759 32.8702 45.145 33.3225 45.1542 34.1726C45.174 34.891 45.2348 35.0013 45.2473 36.481C45.1779 37.1443 45.2558 34.696 45.1388 35.7233C45.0805 36.2337 45.1892 39.6301 45.0575 38.5475L45.0764 36.619C44.9878 36.5695 44.9928 35.1728 44.9212 35.212C44.8887 34.0327 44.9884 32.9195 44.9113 31.715C44.8826 31.4649 44.8416 31.5582 44.8136 31.4649C44.7996 31.4184 44.7889 31.325 44.7845 31.1187C44.7786 30.913 44.786 30.5816 44.7402 30.073C44.7293 29.6727 44.6517 29.0751 44.4447 28.4049C44.2401 27.7352 43.8998 26.9983 43.4429 26.3303C42.9896 25.6598 42.4241 25.063 41.8625 24.6074C41.3965 24.2278 40.8896 23.9012 40.3513 23.6337C40.3513 23.6337 39.9972 23.4679 39.6297 23.3393C39.2627 23.2084 38.8858 23.1159 38.8858 23.1159C38.9427 23.1553 39.6505 23.3719 40.1852 23.6428C40.4538 23.7741 40.6829 23.9052 40.7885 23.9755C40.8952 24.0446 40.8816 24.0471 40.66 23.9369C40.66 23.9369 40.1385 23.6374 39.576 23.4281C39.017 23.2098 38.4301 23.0853 38.4301 23.0853L38.6179 23.0957C38.2329 22.9939 37.8333 22.9319 37.4413 22.9022C37.0504 22.8722 36.6605 22.8824 36.3097 22.8948C36.5389 22.8748 36.7689 22.8665 36.999 22.8698C37.2588 22.8749 37.5183 22.8927 37.7764 22.9234C38.2567 22.9798 38.5989 23.0552 38.4408 22.9689C37.8867 22.8367 37.559 22.7937 37.2432 22.7573C36.9273 22.7232 36.6133 22.7198 36.1126 22.7295C36.3338 22.723 36.5241 22.7139 36.4961 22.701C34.267 22.661 34.3436 22.8043 33.7846 22.8344C31.5434 22.9546 36.0434 22.9459 35.757 23.041L29.2135 23.0919C29.7723 23.0618 30.335 23.0321 30.1242 22.9941C28.5193 22.9514 30.0878 22.9224 27.8345 22.9269C27.9949 23.0532 24.997 23.0057 23.4053 23.0786C22.6615 23.0268 22.5085 23.0164 24.1349 23.0149C23.9483 22.933 21.7651 22.9644 20.9887 22.957C20.5389 22.9773 19.7721 22.9892 19.2858 23.0075C19.9372 23.0483 19.6591 23.0997 18.2493 23.1347L18.1672 23.152C20.4784 23.1745 24.0706 23.264 25.5195 23.18L25.11 23.2207C27.7851 23.2916 30.9313 23.0734 32.1649 23.2282C32.051 23.2896 32.7022 23.2424 32.6557 23.3309L34.6253 23.2617L34.2158 23.3018L35.8911 23.2917C36.3112 23.2914 36.7301 23.2803 37.0296 23.2961C37.3339 23.3104 37.5353 23.3369 37.5353 23.3369L37.4481 23.3436C38.1445 23.3824 38.8324 23.5152 39.4932 23.7385C40.0224 23.9177 40.5312 24.1522 41.0111 24.4383C41.0343 24.4111 40.9604 24.3331 41.4072 24.6232C41.7641 24.8711 42.0938 25.1561 42.3905 25.4736C42.3925 25.4755 42.3925 25.4755 42.3928 25.4753L42.3925 25.4757C42.6728 25.7789 42.8784 26.0562 43.0781 26.3632C43.2765 26.6711 43.4707 27.0092 43.6878 27.4627C43.6878 27.4627 43.6027 27.2889 43.4564 27.0384C43.2769 26.7327 43.0773 26.4393 42.8589 26.16C42.6404 25.8809 42.4036 25.6167 42.1499 25.3692C41.9423 25.1668 41.7945 25.0423 41.7945 25.0421C41.6764 24.986 41.6605 25.0116 41.8049 25.1814C41.9462 25.3532 42.2594 25.6631 42.7014 26.2577C42.5144 26.0194 42.3574 25.8714 42.3179 25.8465C42.2756 25.8239 42.3535 25.9201 42.5853 26.2105C42.6194 26.2351 42.9317 26.616 43.1483 26.9444C43.368 27.2699 43.5172 27.5256 43.3672 27.194C43.7277 27.8166 44.0449 28.5992 44.2109 29.4945C44.2975 29.9595 44.3405 30.4316 44.3394 30.9046L44.3209 32.4585C44.2964 34.588 44.2846 36.9091 44.347 39.1559C44.272 35.9275 44.2591 41.7433 44.2321 38.1593C44.1271 40.6609 44.3354 40.3118 44.3191 42.8619C44.2813 43.0793 44.3239 41.4735 44.2495 40.8876C44.2321 42.6372 44.2579 44.1608 44.292 45.6366L44.3449 47.6541C44.3617 48.2766 44.3763 48.9355 44.3841 49.6224C43.9663 49.2147 43.5528 48.8027 43.1438 48.3863L43.0487 48.1753L41.3892 46.5633ZM35.5798 40.8979L33.8603 39.2182L34.0254 39.3868L32.3017 37.7564C33.3096 38.8095 33.925 39.552 32.4531 38.1393C32.5984 38.2368 32.206 37.7859 32.7215 38.2732C31.7898 37.2719 29.7029 35.1177 30.1684 35.758C32.1082 37.5326 30.4899 36.3023 32.0105 37.7003C31.5906 37.3373 31.193 36.9552 30.8046 36.5749L30.2277 36.0078C30.1341 35.92 30.0296 35.8061 29.9569 35.7554C29.8744 35.6973 29.7788 35.6604 29.6786 35.6482C29.8857 35.6719 29.9688 35.7407 29.9819 35.7211C29.9929 35.7112 29.9314 35.6235 29.7626 35.5583C29.6597 35.5208 29.5495 35.5079 29.4407 35.5205C29.2973 35.5367 29.1615 35.594 29.0499 35.6855C28.9149 35.7953 28.8205 35.9471 28.7816 36.1167C28.7381 36.3063 28.7647 36.5053 28.8565 36.6768C28.9005 36.7534 28.9679 36.8305 29.0595 36.9152L29.3524 37.2036L30.0637 37.9107C30.573 38.4177 31.1253 38.9649 31.5551 39.3717C31.3106 39.0202 32.0698 39.7182 30.72 38.3414C31.4537 39.035 32.167 39.75 32.8589 40.4854C32.5058 40.1506 31.8981 39.556 31.9203 39.6168C32.4304 40.2253 33.0878 40.8784 33.4281 41.2609L34.2991 42.1146C34.2193 42.0256 34.1523 41.9463 34.1077 41.8867L35.1134 42.7981C33.8118 41.5467 34.5483 42.1837 34.5965 42.1691C34.4989 42.197 35.4098 42.9987 35.8489 43.4335L34.9667 42.419C35.4589 42.845 36.5379 44.0859 36.3646 43.7816C34.3775 41.7418 33.5917 40.9785 31.7511 39.1772L32.4388 39.9677C31.3932 38.9585 31.0986 38.6199 30.7768 38.2453C30.6158 38.0582 30.4482 37.8622 30.1764 37.5689C30.0406 37.4223 29.8788 37.2513 29.6787 37.0452C29.5781 36.9427 29.4686 36.8307 29.3485 36.7081C29.2909 36.6491 29.2098 36.5703 29.201 36.5517C29.1706 36.5102 29.1451 36.4627 29.129 36.4088C29.1122 36.3629 29.0991 36.3189 29.0989 36.2512C29.0985 36.1857 29.112 36.1208 29.1388 36.061C29.1655 36.0012 29.2047 35.9477 29.2538 35.9043C29.3073 35.8558 29.371 35.82 29.4402 35.7995C29.5174 35.7769 29.5988 35.7735 29.6776 35.7894C29.7564 35.8054 29.8301 35.8403 29.8924 35.8911C29.9159 35.909 29.9712 35.9657 30.0197 36.0132L30.1662 36.1576L30.4551 36.4418C31.2145 37.1878 31.8657 37.814 31.9364 37.7908C31.6188 37.5304 33.2877 39.3094 34.12 40.0565C35.0788 40.8436 37.73 43.4718 36.9696 42.6328C36.2574 41.9186 35.2503 41.0057 34.7329 40.3765L36.1343 41.7423L35.2733 40.7875C35.7265 41.274 35.7266 41.1826 35.5798 40.8979ZM53.6481 46.3367L53.7028 46.2845L53.6432 46.3436L53.6481 46.3367Z" fill="#202020"/>
<path d="M40.9201 0.820188C41.4827 0.789953 42.8739 0.794992 42.6014 0.72982C42.635 0.801543 40.1158 0.740907 40.9201 0.820188ZM42.5836 0.890231C42.6815 0.873098 42.6135 0.845719 43.2377 0.8432L41.519 0.861341L42.5836 0.890231ZM44.3276 1.37952C45.214 1.32611 45.7757 1.29604 47.167 1.30091C47.6894 1.4756 44.8893 1.34979 44.2586 1.51256C46.8087 1.52902 47.5914 1.37633 49.689 1.36172C48.6495 1.28865 44.4041 1.24666 44.3276 1.37952ZM43.1949 1.60007L44.613 1.56076L44.4731 1.55052L43.0539 1.58982L43.1949 1.60007ZM12.4798 0.0833076C12.4478 0.0695341 12.3686 0.0628152 12.2602 0.0602957C12.1497 0.0581121 12.0219 0.0592879 11.8554 0.0648309C11.5334 0.0762527 11.1661 0.114045 10.9108 0.144784C11.1547 0.125882 11.3991 0.113449 11.6438 0.107496L12.0652 0.0984254C12.2035 0.0956497 12.3417 0.0906093 12.4798 0.0833076ZM12.854 23.634L11.825 23.6537C11.5054 23.6562 11.1858 23.6463 10.8669 23.624C10.2915 23.5845 9.71987 23.5028 9.15649 23.3794C8.58707 23.2549 8.02848 23.0851 7.48604 22.8718C6.8365 22.6162 6.21309 22.2987 5.62444 21.9236C6.48478 22.511 7.28112 22.8748 8.00389 23.1276C8.72884 23.3787 9.3851 23.5181 10.023 23.6062C10.6617 23.6928 11.284 23.7266 11.9601 23.7212C12.6017 23.7128 13.2894 23.716 14.1072 23.7442L12.854 23.634ZM11.8139 24.0677C11.3581 23.9676 14.0671 23.9485 13.649 23.8736C12.6702 23.8862 12.4423 23.9105 12.237 23.9308C12.1316 23.9407 12.0454 23.9508 11.8433 23.955C11.646 23.9572 11.3554 23.956 10.876 23.91C10.876 23.91 11.1078 23.9589 11.3424 23.998C11.5769 24.0382 11.8139 24.0677 11.8139 24.0677ZM2.32252 15.6659C2.32252 15.6659 2.40785 15.8549 2.50056 16.0395C2.59312 16.2244 2.69306 16.4045 2.69306 16.4045C2.69306 16.4045 2.61814 16.2569 2.54793 16.1067C2.47721 15.9565 2.41204 15.804 2.41204 15.804L2.32252 15.6659ZM25.0677 23.978L24.7468 24.0012L26.2031 24.0338L25.0677 23.978ZM2.94483 16.5407C2.94483 16.5407 2.81415 16.2696 2.70246 15.9908C2.58857 15.7126 2.49368 15.4279 2.49351 15.4279L2.37509 15.1545L2.26507 14.8768C2.26507 14.8768 2.39542 15.3085 2.56792 15.7244C2.73589 16.1421 2.94483 16.5407 2.94483 16.5407ZM11.3727 22.683C11.3727 22.683 11.0888 22.6756 10.8053 22.6514C10.5217 22.6289 10.2397 22.5896 10.2397 22.5898C10.3513 22.6069 10.7915 22.6803 11.1281 22.7058C11.4646 22.7331 11.6927 22.7322 11.3727 22.683ZM33.9625 24.0217L35.3872 23.9822L35.2417 23.972L33.8215 24.0115L33.9625 24.0217ZM20.5191 22.4179C19.7103 22.339 22.8555 22.3966 21.191 22.3267C19.7101 22.339 20.311 22.3803 20.5191 22.4179ZM37.7187 23.0299C37.9114 23.0554 38.1133 23.0891 38.308 23.1217C38.113 23.0824 37.9164 23.0518 37.7187 23.0299ZM37.7187 23.0299C37.4082 22.9869 37.0957 22.9548 36.8065 22.944C36.5524 22.9347 36.2981 22.9355 36.0441 22.9464C36.8157 22.9806 37.1053 22.9643 37.7187 23.0299ZM43.5316 26.8527C43.5316 26.8527 43.4591 26.73 43.3825 26.6098C43.3064 26.4892 43.2249 26.3721 43.2249 26.3721C43.407 26.6004 43.4524 26.6635 43.4194 26.6115C43.385 26.5606 43.2696 26.397 43.1013 26.1977C42.7301 25.7204 42.721 25.7728 42.6644 25.7273C42.5779 25.6429 42.4897 25.562 42.3928 25.4756C42.5126 25.5879 42.6293 25.7035 42.7429 25.8222C43.3415 26.5375 43.5975 27.053 43.5316 26.8527ZM43.1226 46.9024C43.2725 47.0937 43.3628 47.2043 43.3926 47.3208C43.4194 47.3504 43.4431 47.3751 43.4611 47.3925C43.4582 47.1136 43.3702 47.0022 43.3482 46.8742C43.3538 46.9879 43.3506 47.0578 43.3479 47.1191C43.2851 47.0517 43.2363 46.9993 43.1226 46.9024ZM43.3482 46.8742L43.3433 46.7921C43.3415 46.8243 43.344 46.8487 43.3482 46.8742ZM36.5107 22.2649L36.722 22.2515C36.8849 22.2423 37.048 22.238 37.2111 22.2386C37.5681 22.2367 37.926 22.2686 37.926 22.2685C37.926 22.2685 37.7955 22.2517 37.6647 22.2402C37.534 22.2273 37.403 22.2196 37.403 22.2196C37.403 22.2196 37.1757 22.2186 36.9501 22.2313C36.8372 22.236 36.7249 22.2461 36.6409 22.2523L36.5107 22.2649ZM41.1634 44.8994C41.4332 45.1747 41.8719 45.6096 42.0715 45.8388C42.1936 45.8738 40.8944 44.6249 41.1634 44.8994ZM44.5253 48.1188C44.563 47.9499 44.5405 46.6414 44.5549 46.0945C44.551 46.4813 44.5206 46.843 44.5028 47.1512C44.485 47.468 44.4796 47.7517 44.5253 48.1188ZM36.7695 40.8628C37.0391 41.1381 37.429 41.5862 37.2116 41.4406C37.6287 41.8153 38.241 42.2745 36.7695 40.8628ZM43.2525 48.6733L43.456 48.9063L44.3915 49.7861L43.2525 48.6733ZM45.4199 46.9804L45.4129 46.7679L45.4058 46.6657C45.4032 46.6256 45.3983 46.5856 45.3912 46.546C45.3813 46.5005 45.3709 46.5203 45.3605 46.5801C45.3553 46.6101 45.3499 46.6501 45.3447 46.6972L45.3366 46.7727L45.3286 46.9017L45.2965 47.4616C45.2751 47.8272 45.2542 48.123 45.2345 48.074C45.2248 48.0495 45.2154 47.9396 45.2064 47.7122L45.1935 47.2788L45.1814 46.6842L45.164 48.0889C45.1614 48.4294 45.1623 48.6459 45.1651 48.7786C45.1712 49.0437 45.1861 48.9723 45.2031 48.8559C45.237 48.6253 45.2792 48.2005 45.2731 50.1679C45.2854 49.0378 45.3148 48.1941 45.3447 47.644C45.3748 47.0959 45.4053 46.853 45.4199 46.9804ZM29.2946 35.731C29.4431 35.6493 29.5694 35.6406 29.6787 35.6485C29.5408 35.631 29.4056 35.6619 29.2946 35.731ZM38.8841 45.4634L40.6567 47.0806C39.4728 46.0001 36.6278 43.1488 36.7279 43.4035C37.6344 44.3416 38.7647 45.4308 39.2541 45.8533L38.8841 45.4634ZM36.4358 46.0686L35.6734 45.3675L36.5774 46.2897C36.3276 46.0165 36.8582 46.4336 36.4358 46.0686ZM36.7524 46.4679L36.5774 46.2897C36.6143 46.3303 36.6696 46.3871 36.7524 46.4679ZM32.5011 38.2646C33.0432 38.8176 33.4834 39.2536 33.9965 39.7392C33.8039 39.5175 32.4533 38.1395 32.5011 38.2646ZM41.7004 51.1083L40.4796 49.9139L41.8027 51.2256L41.7004 51.1083ZM49.26 51.2528L49.4831 51.059L50.4575 50.029L50.2312 50.2263L49.26 51.2528ZM41.3823 48.009C40.5705 47.1806 39.8593 46.6083 40.059 46.8374L41.6522 48.4245C41.3099 47.9606 41.2093 47.9851 40.3031 47.0482L41.3823 48.009Z" fill="#202020"/>
<path d="M47.3585 33.0017C47.4159 33.5038 47.3827 35.9615 47.3281 36.0901C47.3044 35.7599 47.2817 34.4276 47.247 35.2644L47.388 37.209C47.3002 39.7952 47.2026 35.2431 47.1529 33.9655C47.1348 36.6006 47.2275 37.3815 47.2268 40.1842C47.235 39.5883 47.2611 38.9927 47.3049 38.3984C47.4042 38.3033 47.3602 40.9147 47.3681 42.7819C47.4112 41.5933 47.4475 42.281 47.4865 43.1469C47.4878 43.258 47.493 43.369 47.5019 43.4798L47.5159 43.7737L47.5157 43.5498C47.5268 43.5658 47.5402 43.5162 47.5587 43.3548C47.5298 41.7882 47.6128 40.5902 47.6141 39.5815C47.4527 40.5781 47.5768 36.1469 47.5271 34.8789L47.5112 33.4149L47.5108 32.8672C47.5285 32.7571 47.5508 32.9129 47.5827 33.748C47.5505 33.0472 47.5629 30.735 47.5093 30.933L47.5046 30.676C47.4987 30.5126 47.4898 30.2788 47.4628 29.9993C47.4134 29.4403 47.292 28.6972 47.0802 27.9776C46.8732 27.2565 46.5788 26.564 46.3216 26.0648C46.064 25.5654 45.8599 25.2511 45.8597 25.2511L45.6009 24.8094C45.4747 24.6439 45.445 24.6226 45.4551 24.649C45.4551 24.649 45.3968 24.5653 45.2804 24.4138C45.1134 24.1942 44.9378 23.9813 44.7541 23.7755C44.0987 23.0389 43.3471 22.3939 42.5195 21.858C41.4964 21.193 40.1699 20.5945 38.6632 20.3102C38.0875 20.2003 37.5039 20.137 36.9181 20.121L36.6196 20.1168L36.3528 20.1168L34.1975 20.1178L22.6421 20.123C23.7822 20.1358 24.7684 20.1726 25.9442 20.1904C24.1796 20.2976 27.8718 20.2097 27.3541 20.3112C26.5609 20.3479 25.4001 20.3364 24.7087 20.3117C24.4512 20.3629 25.4365 20.4082 25.3227 20.4694C28.2376 20.5337 28.6836 20.2888 31.5331 20.3259C31.4203 20.3873 30.5394 20.441 32.4046 20.4326L31.9306 20.4459C34.9174 20.3772 34.2576 20.5846 36.1377 20.4163L36.0883 20.5048L36.655 20.4833C36.8932 20.4777 37.1316 20.4811 37.3696 20.4934C37.9055 20.5221 38.4383 20.594 38.9627 20.7084C40.0518 20.9394 41.1008 21.3902 41.8085 21.7913L41.7154 21.7587C42.7234 22.2966 43.2957 22.7679 43.7005 23.1162C44.0102 23.3862 44.3014 23.6767 44.5722 23.9856C44.806 24.2549 45.0461 24.5435 45.3901 25.0433C45.5989 25.3496 45.7923 25.6661 45.9694 25.9917C46.2285 26.4672 46.4512 26.9617 46.6357 27.4708C46.6357 27.4708 46.581 27.3326 46.4914 27.129C46.3804 26.8814 46.2605 26.6379 46.132 26.3989C45.8532 25.8768 45.514 25.3959 45.514 25.3959C45.9615 26.1541 46.1921 26.6419 46.3947 27.0758C46.5905 27.512 46.7535 27.901 46.9003 28.5203C46.8811 28.4781 46.8732 28.5322 46.8327 28.4523C46.7899 28.373 46.7249 28.1565 46.5279 27.595C46.5279 27.595 46.562 27.6853 46.6177 27.8447C46.6942 28.0655 46.7628 28.2888 46.8235 28.5144C46.978 29.0736 47.1237 29.8392 47.169 30.6152C47.192 31.0177 47.1947 31.3549 47.2058 31.6909L47.231 32.6003L47.2555 33.4873C47.3225 34.8426 47.3209 33.2127 47.3585 33.0017Z" fill="#202020"/>
<path d="M47.2268 40.1842C47.2221 40.4847 47.2201 40.8262 47.2234 41.2293L47.2268 40.1842ZM21.0188 20.1237L22.6424 20.1228C22.1395 20.1175 21.6151 20.1158 21.0188 20.1237ZM47.4201 47.0175C47.443 46.9164 47.4589 46.9391 47.4735 46.9597C47.488 46.9834 47.5013 47.0101 47.5182 46.9859L47.5165 45.7052C47.4824 45.7209 47.4441 45.3721 47.4131 45.4428L47.4166 46.7899L47.4201 47.0175Z" fill="#202020"/>
<path d="M47.5809 44.6844C47.557 44.565 47.5359 44.1916 47.5157 43.7737L47.5165 45.7051C47.5422 45.693 47.5656 45.4765 47.5809 44.6844ZM45.7601 45.0576L45.7569 44.4334L45.7307 43.4891L45.7601 45.0576ZM45.9101 35.2951C45.8583 36.0406 45.8977 37.455 45.9108 37.9282C45.9091 36.2982 45.9287 37.0045 45.9101 35.2951ZM45.3558 37.3096L45.3264 35.7384L45.3163 35.8848L45.3558 37.3096ZM9.34866 20.0457C9.12845 19.9743 8.91115 19.8941 8.69728 19.8055C8.90992 19.8973 9.12736 19.9775 9.34866 20.0457ZM22.5015 20.3879C18.7534 20.2884 24.9572 20.3052 23.7797 20.1779L21.7399 20.2201L21.9134 20.186L19.426 20.1971C19.9362 20.2555 20.3197 20.2592 20.2087 20.3205C16.8879 20.2965 19.1619 20.2476 16.7257 20.1702L13.0139 20.1813L13.3144 20.163C13.0018 20.1643 12.8636 20.172 12.7564 20.1819L12.2191 20.1836L11.9434 20.1836C11.6128 20.1826 11.2825 20.1618 10.9543 20.1213C10.3747 20.0489 9.80475 19.914 9.25426 19.7189C8.62223 19.4945 8.02027 19.1931 7.46204 18.8214C6.90272 18.4484 6.39096 18.0087 5.93806 17.5119C5.54335 17.0781 5.19583 16.6036 4.90136 16.0964C4.69374 15.7378 4.51382 15.3638 4.36318 14.9778C4.25417 14.6983 4.20462 14.534 4.20462 14.534C4.04387 14.0617 4.00239 13.8843 3.98273 13.8756C3.96594 13.8658 3.98559 14.0207 4.01498 14.1913C4.04287 14.3625 4.08385 14.5484 4.08234 14.6049C4.08234 14.6608 4.02943 14.5909 3.90614 14.2337C4.07406 14.8536 4.3111 15.4528 4.61278 16.0199C4.92705 16.6093 5.31657 17.1609 5.71869 17.6109C6.52158 18.5194 7.34093 19.0048 7.45146 19.0089C7.37738 18.9781 7.22352 18.9242 7.62211 19.1945C7.62228 19.1945 7.92731 19.3549 8.2441 19.4844C8.55988 19.6171 8.88389 19.7202 8.88389 19.7204C8.88389 19.7204 8.58676 19.592 8.30239 19.4392C8.11249 19.3382 7.92668 19.2297 7.7454 19.114C8.04926 19.2677 8.52108 19.5064 9.09637 19.7118C10.0311 20.0489 11.0164 20.2245 12.0101 20.2312L13.0196 20.2421C13.6339 20.2515 14.1114 20.2644 14.3355 20.28C12.9269 20.2972 12.5762 20.336 12.0869 20.3623C11.8495 20.3741 11.6117 20.3849 11.1938 20.3492C10.7824 20.3079 10.2001 20.2339 9.37134 19.9451C9.50873 20.0249 10.1168 20.2631 9.34849 20.0456C9.83723 20.2036 10.3393 20.3169 10.8486 20.3838C11.2242 20.4334 11.6026 20.4585 11.9814 20.4589L12.3954 20.4586L15.6982 20.4557C17.8988 20.4524 20.12 20.4401 22.5015 20.3879ZM18.3347 3.62712L18.2982 3.6382C18.3813 3.63232 18.4082 3.62779 18.3347 3.62712ZM16.7914 3.612L14.5502 3.73193L18.0444 3.72236L18.2982 3.6382C17.9893 3.65954 16.7643 3.7022 16.2895 3.66928L16.7914 3.612ZM11.9535 3.80516C13.7466 3.76804 13.6571 3.66995 12.6701 3.62443C14.3271 3.57841 13.5444 3.73092 14.6854 3.62628C14.6481 3.55472 12.6056 3.59672 12.1363 3.60982C12.1364 3.60998 11.9471 3.80449 11.9535 3.80516ZM3.79108 10.9049C3.79108 10.9049 3.79461 10.7917 3.80452 10.6786C3.81157 10.5654 3.82417 10.4524 3.82417 10.4524C3.82417 10.4524 3.76706 10.7255 3.73095 11.0025C3.69215 11.2791 3.67552 11.5586 3.67535 11.5586C3.67535 11.5586 3.69736 11.3933 3.72658 11.2299C3.75564 11.0665 3.79108 10.9049 3.79108 10.9049ZM3.82417 10.4525C3.82417 10.4525 3.87842 10.1809 3.95266 9.91436C4.02455 9.64712 4.11677 9.38626 4.1166 9.38626C4.06487 9.44958 4.01011 9.51173 3.93923 9.68071C3.93923 9.68071 3.90026 9.87287 3.87255 10.066C3.84265 10.259 3.82417 10.4525 3.82417 10.4525ZM5.52603 6.86975C5.86811 6.45479 6.24752 6.07207 6.65948 5.72639C6.65948 5.72639 6.34773 5.98204 6.06554 6.27044C5.87611 6.46135 5.69605 6.66136 5.52603 6.86975ZM4.79268 7.89806L4.82308 7.87236C4.82308 7.87236 4.97862 7.60798 5.15616 7.35804C5.33169 7.10676 5.52603 6.86975 5.52603 6.86975C5.25684 7.19419 5.01174 7.53787 4.79268 7.89806Z" fill="#202020"/>
<path d="M4.11642 9.38629C4.17941 9.31289 4.2419 9.23176 4.36468 8.98821C4.49284 8.74734 4.66552 8.33498 5.07637 7.66142L4.94854 7.76506L4.8229 7.87239C4.8229 7.87239 4.60723 8.23134 4.4312 8.61129C4.25298 8.99006 4.11659 9.38629 4.11642 9.38629ZM44.2395 26.5273C44.2395 26.5273 44.0666 26.251 43.8723 25.9905C43.7434 25.8167 43.6084 25.6474 43.4676 25.4831L43.5449 25.5968C43.5449 25.5968 43.754 25.8442 43.9408 26.1096C44.1299 26.3731 44.2988 26.651 44.2988 26.651L44.2395 26.5273ZM38.3016 22.2572C38.0407 22.2172 37.7777 22.1914 37.514 22.1798C37.8528 22.2065 38.1214 22.2413 38.3016 22.2572ZM32.3647 22.5705C30.6955 22.5006 34.6676 22.4781 31.5765 22.4472C31.304 22.3822 32.7531 22.2984 34.2085 22.3308C34.093 22.3919 32.7904 22.3699 33.6851 22.4324C34.6518 22.3617 35.0195 22.4099 34.6825 22.3177C35.4957 22.289 35.9475 22.2582 36.334 22.2272L36.8776 22.1848C37.0895 22.1734 37.3019 22.1718 37.514 22.1801C37.26 22.1604 37.0053 22.1491 36.7506 22.1462L35.7732 22.1454L33.4977 22.1378C31.9082 22.1341 30.2524 22.14 29.0049 22.1991C27.6295 22.31 28.4637 22.4613 28.4581 22.6214C28.6652 22.6587 32.2304 22.6765 32.3647 22.5705ZM34.9913 22.7302C35.7639 22.7381 35.9999 22.7317 36.4739 22.7185C36.3461 22.6636 35.6156 22.7277 34.9913 22.7302ZM17.2371 21.5247C17.0897 21.5476 15.692 21.5758 15.9925 21.6151L18.1114 21.5864C17.6142 21.5825 17.4389 21.5548 17.2371 21.5247ZM19.0408 21.5741L18.1116 21.5864C18.4214 21.5878 18.7312 21.5837 19.0408 21.5741ZM17.1365 21.5106L17.2373 21.5247C17.267 21.52 17.2615 21.515 17.1365 21.5106ZM9.2089 4.27669C9.20436 4.30222 9.39434 4.2357 9.63958 4.15978C9.88727 4.08172 10.1378 4.01286 10.3906 3.95335C10.056 4.01314 9.588 4.1235 9.2089 4.27669ZM44.3266 3.61791L45.1608 3.65285C44.866 3.63202 44.7148 3.62161 44.3266 3.61791ZM57.1823 2.41778C57.2066 2.40921 57.2681 2.40199 57.3511 2.39527C57.2681 2.40081 57.2102 2.4082 57.1823 2.41778ZM57.3511 2.39527C57.9212 2.35882 59.681 2.41559 60.3136 2.36L60.2333 2.37696L61.4107 2.34387C60.307 2.34891 57.9902 2.34202 57.3511 2.39527Z" fill="#202020"/>
</svg>
